<?xml version="1.0" standalone="no"?>
<!DOCTYPE svg PUBLIC "-//W3C//DTD SVG 20010904//EN"
 "http://www.w3.org/TR/2001/REC-SVG-20010904/DTD/svg10.dtd">
<svg version="1.0" xmlns="http://www.w3.org/2000/svg"
 width="2048.000000pt" height="2048.000000pt" viewBox="0 0 2048.000000 2048.000000"
 preserveAspectRatio="xMidYMid meet">
<metadata>
Created by potrace 1.14, written by Peter Selinger 2001-2017
</metadata>
<g transform="translate(0.000000,2048.000000) scale(0.100000,-0.100000)"
fill="#000000" stroke="none">
<path d="M16864 19800 c5 -23 4 -23 -8 -7 -11 14 -15 15 -19 5 -4 -10 -6 -10
-6 0 -1 6 -6 12 -12 12 -5 0 -7 -5 -3 -12 4 -6 3 -8 -3 -5 -5 3 -22 8 -37 11
-23 4 -27 2 -21 -11 5 -14 2 -13 -16 3 -12 10 -19 13 -15 7 4 -7 3 -13 -1 -13
-5 0 -15 6 -22 13 -11 10 -13 9 -8 -4 3 -9 0 -16 -9 -16 -7 0 -11 4 -8 9 3 4
0 8 -5 8 -6 0 -11 -4 -11 -8 0 -11 -31 -9 -49 3 -9 5 -12 4 -8 -2 4 -6 0 -13
-8 -17 -8 -3 -17 -1 -20 4 -4 6 -11 10 -16 10 -6 0 -8 -4 -5 -8 3 -5 -1 -9 -9
-9 -8 0 -11 5 -8 11 4 6 0 5 -9 -2 -13 -10 -17 -10 -21 0 -4 10 -6 10 -6 1 -1
-7 -8 -13 -17 -13 -9 0 -12 -5 -8 -12 4 -7 3 -8 -4 -4 -6 4 -9 14 -6 24 4 11
-2 8 -16 -8 -12 -14 -19 -19 -15 -12 3 6 2 12 -2 12 -5 0 -15 -6 -22 -12 -11
-10 -13 -10 -7 0 4 6 2 12 -3 12 -6 0 -11 -5 -11 -11 0 -8 -6 -7 -17 2 -12 10
-15 10 -9 1 6 -9 -1 -11 -26 -8 -18 3 -27 3 -20 0 19 -8 14 -20 -8 -21 -11 -1
-18 2 -15 7 3 5 -3 8 -14 7 -11 0 -17 -5 -14 -11 4 -5 -1 -7 -10 -3 -9 3 -18
-1 -22 -11 -6 -15 -8 -15 -21 2 -9 13 -14 15 -14 6 0 -7 -3 -10 -7 -7 -3 4
-13 1 -21 -6 -9 -6 -13 -7 -9 -1 3 6 0 11 -7 11 -8 0 -12 -5 -10 -12 3 -7 -11
-11 -40 -10 -33 0 -42 -3 -35 -12 7 -8 5 -11 -8 -9 -10 2 -21 -4 -25 -13 -5
-12 -7 -10 -7 8 -1 23 -2 24 -15 6 -8 -11 -19 -16 -30 -12 -9 4 -16 2 -16 -2
0 -5 6 -11 13 -14 6 -3 2 -4 -10 -4 -12 1 -20 4 -18 7 2 4 -2 7 -10 7 -8 0
-11 -5 -8 -10 4 -6 -3 -8 -15 -5 -14 4 -20 2 -15 -5 4 -7 0 -8 -12 -3 -15 5
-16 4 -6 -8 10 -12 9 -14 -8 -9 -12 3 -18 10 -14 16 4 6 1 7 -6 3 -7 -5 -10
-14 -8 -20 3 -7 -2 -13 -10 -13 -9 0 -13 7 -10 19 3 10 1 16 -4 12 -5 -3 -9
-11 -9 -19 0 -8 -5 -17 -12 -21 -7 -4 -8 -3 -4 4 4 7 2 12 -3 12 -6 0 -11 -6
-11 -12 0 -7 -14 -14 -31 -15 -17 -1 -37 -7 -44 -13 -10 -8 -14 -7 -18 2 -4 9
-6 9 -6 -2 -1 -21 -38 -43 -47 -29 -5 8 -10 6 -16 -5 -5 -9 -20 -16 -33 -16
-13 0 -25 -6 -28 -12 -3 -10 -7 -10 -19 -1 -18 15 -32 5 -18 -12 8 -10 3 -12
-19 -10 -21 2 -28 -1 -24 -11 3 -8 1 -14 -5 -14 -6 0 -13 6 -15 13 -3 7 -6 4
-6 -7 -1 -16 -3 -17 -18 -5 -11 10 -14 10 -9 2 4 -8 2 -13 -8 -13 -8 0 -18 -5
-22 -12 -5 -7 -3 -8 6 -3 8 5 11 4 7 -3 -4 -5 -18 -9 -32 -8 -14 2 -26 -3 -30
-11 -3 -9 -12 -12 -20 -9 -8 3 -15 1 -15 -4 0 -5 -8 -7 -17 -3 -10 3 -15 3
-11 -2 14 -15 -25 -34 -47 -22 -17 9 -18 8 -7 -5 10 -13 9 -18 -3 -28 -13 -11
-15 -10 -9 6 4 14 1 13 -15 -6 -11 -14 -21 -19 -21 -12 0 8 -8 6 -22 -7 -11
-11 -26 -17 -32 -14 -7 4 -6 1 1 -8 10 -12 8 -15 -7 -15 -10 0 -16 5 -13 11 2
5 -4 -1 -15 -15 -18 -21 -22 -22 -39 -10 -10 8 -15 11 -11 6 11 -13 -12 -48
-27 -42 -7 2 -16 -2 -19 -11 -4 -9 -13 -13 -22 -9 -8 3 -12 2 -9 -4 6 -9 -9
-15 -29 -11 -5 1 -4 -5 3 -13 10 -12 9 -14 -10 -9 -12 4 -20 2 -17 -3 3 -5 -1
-15 -9 -23 -13 -12 -14 -11 -8 8 6 19 4 19 -22 -6 -15 -15 -27 -31 -25 -35 1
-4 -5 -5 -13 -2 -8 4 -15 1 -15 -6 0 -6 -4 -8 -10 -5 -5 3 -10 -2 -10 -12 0
-15 -2 -16 -10 -3 -9 13 -10 13 -11 0 -1 -8 -1 -19 0 -23 1 -5 -4 -5 -10 -1
-7 4 -18 -1 -26 -11 -7 -11 -13 -15 -13 -11 0 4 -7 0 -16 -8 -8 -9 -20 -14
-25 -10 -5 3 -8 0 -7 -8 2 -7 -6 -13 -17 -13 -11 0 -21 -8 -23 -18 -3 -12 -9
-16 -19 -13 -14 6 -14 4 -2 -11 11 -13 11 -15 1 -9 -8 5 -19 1 -28 -10 -9 -11
-13 -14 -10 -7 4 6 2 15 -4 18 -6 4 -10 3 -9 -2 4 -25 -3 -41 -18 -39 -10 0
-18 -4 -18 -11 0 -15 -15 -30 -15 -14 0 7 -5 9 -10 6 -6 -4 -7 -11 -4 -17 5
-7 2 -9 -8 -5 -21 8 -31 -3 -17 -19 8 -10 6 -12 -10 -9 -13 2 -21 -1 -21 -9 0
-8 -11 -17 -25 -20 -14 -4 -24 -10 -21 -14 2 -4 -3 -16 -11 -27 -12 -15 -14
-16 -10 -3 4 12 2 15 -8 11 -8 -3 -12 -9 -9 -14 3 -5 0 -9 -6 -9 -6 0 -8 -4
-5 -10 3 -5 -1 -10 -10 -10 -9 0 -13 -4 -10 -10 3 -6 -1 -7 -10 -4 -10 4 -15
2 -13 -6 2 -7 -3 -15 -11 -18 -9 -3 -11 0 -6 8 5 8 4 11 -3 6 -6 -3 -9 -16 -7
-27 3 -16 1 -18 -8 -10 -9 7 -17 4 -27 -12 -13 -21 -12 -21 6 -7 18 14 18 14
5 -2 -7 -10 -18 -15 -23 -12 -5 3 -12 -4 -15 -16 -4 -16 -8 -18 -14 -8 -7 10
-9 9 -9 -3 0 -9 -7 -20 -16 -23 -9 -3 -14 -12 -11 -20 4 -10 -1 -13 -19 -11
-21 2 -22 0 -12 -13 7 -9 8 -13 2 -9 -6 3 -18 -7 -28 -24 -9 -16 -23 -29 -29
-29 -17 0 -47 -36 -39 -46 4 -5 -2 -2 -12 6 -17 14 -18 13 -12 -8 6 -17 4 -21
-8 -16 -11 4 -14 0 -11 -16 4 -19 2 -20 -13 -9 -9 7 -14 10 -10 5 12 -14 -11
-46 -27 -40 -11 5 -13 2 -8 -12 5 -14 3 -16 -12 -11 -16 7 -16 5 -4 -10 9 -11
10 -14 2 -9 -8 4 -13 1 -13 -8 0 -9 -5 -16 -11 -16 -5 0 -7 5 -3 12 5 7 3 8
-5 4 -7 -5 -10 -14 -7 -22 3 -8 2 -14 -2 -14 -4 0 -18 -10 -32 -21 -14 -11
-20 -18 -13 -15 6 4 15 2 18 -4 4 -6 3 -10 -2 -9 -18 3 -47 -3 -35 -8 6 -2 12
-9 12 -15 0 -6 -7 -8 -15 -4 -8 3 -15 1 -15 -5 0 -6 -6 -7 -12 -3 -8 5 -7 0 2
-11 14 -17 13 -18 -2 -13 -15 6 -34 -15 -30 -34 1 -5 -4 -8 -11 -8 -18 0 -38
-36 -31 -57 5 -14 4 -15 -4 -4 -8 12 -14 8 -26 -20 -9 -19 -14 -26 -11 -16 3
10 1 15 -5 12 -6 -3 -10 -16 -10 -28 0 -18 -2 -19 -10 -7 -8 12 -10 9 -10 -12
0 -19 -5 -28 -16 -28 -8 0 -12 -5 -9 -10 3 -6 -1 -13 -9 -16 -9 -3 -14 -10
-11 -14 3 -5 -4 -11 -15 -15 -11 -3 -20 -11 -20 -17 0 -6 7 -5 18 3 14 11 14
10 -2 -8 -10 -13 -22 -20 -27 -17 -4 2 -6 -5 -4 -17 2 -12 2 -19 -2 -16 -7 8
-33 -18 -33 -33 0 -6 -4 -8 -10 -5 -6 4 -7 -1 -3 -11 5 -14 3 -16 -12 -11 -15
6 -16 5 -6 -7 9 -11 7 -18 -14 -34 -14 -11 -25 -27 -25 -37 0 -9 -4 -14 -9
-10 -6 3 -8 -4 -6 -16 4 -18 2 -19 -12 -7 -15 12 -15 11 -5 -9 11 -19 10 -21
-8 -18 -17 3 -19 1 -10 -15 9 -17 8 -19 -7 -13 -16 6 -17 5 -3 -12 9 -11 10
-16 3 -11 -7 4 -21 2 -30 -4 -13 -8 -13 -10 -3 -7 10 3 16 -2 16 -13 0 -11 -5
-16 -15 -12 -11 4 -13 1 -8 -12 6 -14 3 -17 -9 -12 -14 5 -15 4 -4 -9 11 -13
10 -14 -5 -8 -14 5 -17 3 -12 -9 6 -16 -25 -53 -35 -42 -3 3 -6 -1 -5 -8 1
-31 -4 -49 -12 -44 -5 4 -8 -5 -6 -19 1 -14 0 -23 -3 -20 -3 3 -14 -2 -24 -11
-13 -12 -15 -21 -7 -30 7 -9 6 -14 -2 -20 -8 -5 -10 -3 -4 7 5 8 4 11 -1 6 -5
-5 -9 -16 -9 -25 0 -9 -6 -16 -14 -14 -12 3 -12 0 -2 -12 14 -17 -2 -32 -21
-20 -9 5 -9 2 1 -9 12 -15 9 -21 -11 -18 -3 0 -5 -7 -4 -17 2 -9 -4 -23 -13
-30 -9 -8 -10 -11 -3 -7 6 3 12 1 12 -4 0 -6 -5 -11 -11 -11 -5 0 -7 -4 -4
-10 3 -5 1 -10 -5 -10 -7 0 -9 -7 -6 -16 4 -11 -1 -18 -15 -21 -16 -4 -17 -8
-7 -14 10 -7 10 -9 1 -9 -7 0 -13 -7 -13 -16 0 -8 -4 -13 -8 -10 -5 3 -9 -1
-9 -9 0 -8 4 -12 9 -9 4 3 8 0 8 -5 0 -6 -7 -11 -15 -11 -9 0 -12 -6 -8 -17 4
-11 3 -14 -5 -9 -7 4 -12 3 -12 -3 0 -5 6 -12 13 -15 6 -4 2 -4 -11 -2 -15 3
-20 0 -15 -7 14 -22 11 -37 -8 -48 -15 -8 -17 -14 -9 -29 9 -17 8 -19 -7 -13
-16 6 -17 5 -3 -13 8 -10 10 -16 6 -12 -5 4 -15 3 -23 -3 -11 -10 -11 -15 -1
-27 9 -11 9 -14 1 -9 -6 4 -14 3 -18 -3 -3 -5 -1 -10 4 -10 6 0 11 -5 11 -11
0 -6 -6 -9 -13 -6 -10 4 -13 -2 -9 -19 2 -14 0 -24 -7 -24 -6 0 -11 -7 -11
-16 0 -9 5 -12 12 -8 7 5 8 3 4 -5 -5 -7 -14 -10 -22 -7 -12 5 -12 2 -3 -15 8
-15 8 -19 0 -15 -15 10 -14 -7 2 -23 10 -10 9 -11 -4 -6 -10 4 -20 1 -25 -6
-5 -8 -3 -10 6 -4 10 6 11 4 4 -6 -5 -8 -7 -21 -6 -30 2 -9 -4 -19 -12 -22 -9
-3 -13 -16 -12 -31 2 -18 -2 -26 -13 -26 -12 0 -13 -2 -3 -9 11 -6 10 -10 -1
-19 -8 -7 -12 -24 -9 -43 4 -25 2 -30 -9 -24 -11 7 -10 4 1 -10 12 -15 12 -17
1 -10 -11 6 -13 4 -8 -8 4 -12 1 -17 -11 -17 -10 0 -13 -3 -7 -8 16 -12 18
-35 2 -29 -11 4 -13 0 -10 -14 3 -10 10 -16 17 -13 6 3 0 -4 -14 -16 -14 -12
-20 -19 -14 -16 7 3 14 -3 17 -14 4 -17 2 -18 -15 -9 -17 9 -18 8 -9 -8 6 -12
6 -25 0 -34 -13 -22 -11 -29 9 -22 12 4 10 0 -5 -11 -16 -12 -22 -25 -19 -46
2 -17 -1 -30 -6 -30 -5 0 -6 -4 -3 -10 3 -5 0 -10 -7 -10 -10 0 -10 -2 1 -9 7
-5 10 -14 7 -20 -4 -6 -11 -9 -15 -7 -10 6 -8 -25 3 -42 4 -6 3 -12 -2 -12
-16 0 -23 -31 -11 -46 10 -13 6 -18 -12 -16 -4 1 -5 -9 -3 -21 2 -12 2 -16 -2
-9 -3 6 -17 12 -30 12 -13 0 -24 4 -24 9 0 5 -7 12 -16 15 -14 5 -15 4 -4 -9
19 -23 3 -18 -21 8 -12 12 -19 17 -16 11 4 -7 -3 -11 -18 -11 -14 0 -22 3 -19
8 4 8 -34 14 -58 10 -5 0 -8 3 -8 9 0 5 -16 9 -36 8 -21 -1 -39 4 -45 13 -6
11 -12 11 -27 3 -14 -9 -22 -9 -35 1 -9 6 -13 16 -9 21 4 4 -1 2 -10 -5 -14
-10 -18 -11 -18 -1 0 7 -8 10 -20 7 -11 -3 -20 -1 -20 5 0 5 -5 6 -12 2 -6 -4
-18 2 -26 12 -13 16 -14 17 -9 2 4 -10 2 -18 -3 -18 -6 0 -10 4 -10 9 0 5 -7
12 -16 15 -10 4 -13 2 -8 -6 5 -8 2 -9 -9 -5 -10 4 -17 1 -17 -5 0 -6 -3 -8
-6 -5 -4 4 -1 14 6 22 11 13 11 16 -1 13 -8 -2 -17 -7 -21 -13 -5 -6 -8 -5 -8
4 0 10 -3 11 -14 2 -17 -14 -32 2 -20 21 4 7 3 8 -4 4 -7 -4 -12 -15 -13 -24
0 -14 -2 -14 -8 2 -8 21 -37 30 -47 14 -3 -5 -15 -2 -27 9 -12 10 -17 12 -12
4 6 -11 4 -13 -11 -6 -10 4 -34 7 -51 6 -18 -1 -33 3 -33 8 0 5 -7 12 -16 15
-13 5 -14 4 -6 -7 9 -10 8 -14 -3 -14 -8 0 -15 4 -15 8 0 4 -8 6 -17 4 -10 -1
-26 2 -35 6 -10 6 -19 5 -23 -2 -5 -7 -14 -3 -27 10 -15 17 -23 19 -38 11 -16
-9 -20 -7 -20 5 0 18 -16 20 -26 3 -4 -6 -3 -8 3 -5 5 3 10 -1 10 -10 0 -13
-4 -11 -18 6 -10 12 -20 17 -24 11 -10 -16 -25 -12 -25 8 0 13 -2 14 -9 3 -7
-11 -11 -10 -21 5 -10 17 -11 17 -6 -4 3 -19 2 -21 -9 -12 -8 7 -20 8 -26 4
-7 -4 -9 -3 -5 4 3 6 2 13 -4 17 -5 3 -10 -2 -11 -12 0 -14 -2 -14 -9 5 -5 12
-12 22 -15 22 -4 0 -4 -4 0 -9 3 -5 1 -12 -5 -16 -5 -3 -10 -1 -10 6 0 9 -3 9
-14 0 -11 -10 -17 -8 -25 6 -10 17 -10 17 -11 -2 -1 -11 -4 -14 -7 -7 -2 6
-13 12 -22 12 -10 0 -21 3 -25 7 -10 11 -37 12 -30 2 3 -5 10 -6 16 -3 7 4 8
2 4 -4 -5 -9 -13 -9 -27 -2 -11 7 -17 16 -12 23 5 9 3 9 -8 1 -24 -18 -69 -16
-70 4 0 15 -1 15 -8 -2 -7 -17 -8 -17 -24 -2 -9 10 -17 12 -17 6 0 -6 -4 -8
-10 -5 -18 11 -51 14 -45 4 4 -5 2 -9 -4 -9 -5 0 -12 6 -14 13 -4 9 -8 9 -15
-2 -8 -11 -10 -11 -15 0 -5 12 -8 11 -17 -1 -10 -12 -11 -11 -7 8 4 17 2 21
-6 14 -18 -14 -49 -23 -42 -13 3 5 1 12 -5 16 -5 3 -10 -1 -10 -11 0 -13 -3
-14 -15 -4 -8 6 -19 9 -24 6 -5 -4 -13 -2 -16 4 -5 8 -11 7 -21 -1 -10 -8 -14
-8 -14 0 0 7 -8 8 -26 1 -23 -9 -25 -8 -20 7 6 16 6 16 -12 0 -17 -16 -20 -16
-32 -2 -11 13 -15 13 -22 3 -6 -11 -10 -10 -17 1 -5 7 -11 9 -14 4 -7 -11 -87
-4 -87 9 0 5 -5 6 -10 3 -6 -4 -7 -11 -4 -17 4 -5 -4 -4 -17 3 -31 16 -59 19
-59 5 0 -6 -4 -5 -9 3 -8 12 -12 12 -25 2 -13 -11 -16 -11 -16 0 0 12 -2 12
-9 0 -6 -9 -10 -10 -12 -2 -3 9 -12 9 -31 2 -20 -8 -29 -7 -39 5 -6 8 -17 11
-23 6 -9 -6 -57 -7 -146 -2 -8 1 -30 -1 -48 -4 -19 -3 -30 -1 -27 4 3 6 -1 7
-9 4 -24 -9 -117 -10 -122 -2 -3 5 -11 5 -17 1 -16 -10 -97 -10 -104 0 -2 4
-16 1 -30 -8 -14 -10 -22 -12 -19 -6 8 12 -21 11 -41 -2 -6 -4 -14 -3 -18 3
-3 5 -11 10 -16 10 -6 0 -7 -6 -3 -12 5 -9 2 -9 -9 1 -14 11 -17 11 -17 0 0
-11 -2 -11 -10 1 -5 8 -10 10 -10 4 0 -6 -7 -11 -15 -11 -8 0 -15 5 -15 11 0
6 -5 4 -10 -4 -9 -13 -10 -13 -10 0 0 12 -2 12 -9 1 -6 -10 -10 -10 -16 -1 -5
8 -12 6 -26 -6 -19 -17 -20 -17 -13 2 7 17 6 18 -10 5 -15 -13 -19 -13 -27 0
-7 12 -9 12 -9 -2 0 -12 -12 -15 -65 -13 -36 2 -70 6 -76 10 -7 4 -9 3 -6 -3
4 -6 0 -13 -8 -17 -8 -3 -15 0 -15 6 0 7 -5 6 -15 -2 -12 -10 -15 -10 -15 1 0
9 -3 10 -8 4 -9 -13 -42 -13 -61 -1 -10 7 -12 6 -6 -4 6 -10 1 -12 -19 -8 -22
4 -26 2 -22 -11 5 -14 5 -14 -7 1 -12 15 -14 15 -25 0 -7 -9 -10 -11 -7 -4 7
15 -11 16 -20 2 -5 -8 -11 -8 -19 -1 -9 7 -17 7 -26 -2 -10 -10 -11 -9 -5 3 6
11 3 10 -11 -2 -18 -16 -22 -16 -36 -2 -12 12 -17 13 -23 3 -6 -8 -4 -10 5 -4
9 5 11 4 6 -4 -6 -9 -11 -9 -22 0 -11 9 -14 9 -14 -1 0 -7 -7 -10 -16 -6 -9 4
-23 1 -30 -5 -11 -9 -14 -8 -14 1 0 9 -4 9 -17 -1 -14 -12 -16 -12 -9 0 6 9 5
12 -5 9 -8 -3 -13 -12 -11 -19 1 -8 -4 -6 -13 5 -13 17 -15 18 -21 2 -6 -15
-7 -15 -20 1 -12 15 -13 15 -8 2 3 -10 0 -20 -7 -25 -8 -5 -10 -3 -4 6 6 10 4
12 -8 7 -9 -3 -19 -1 -23 5 -5 7 -12 5 -21 -7 -9 -13 -13 -14 -13 -5 0 9 -4 8
-13 -5 -9 -12 -16 -14 -21 -7 -4 6 -14 8 -23 5 -12 -5 -14 -3 -8 7 5 9 4 11
-3 6 -7 -4 -12 -14 -12 -22 0 -8 -5 -12 -10 -9 -6 4 -8 10 -6 14 3 3 -4 7 -14
7 -12 0 -16 -4 -10 -11 6 -7 2 -11 -10 -11 -10 0 -17 3 -14 7 2 4 -5 5 -16 2
-11 -3 -17 -10 -14 -17 3 -6 -2 -2 -10 8 -15 18 -16 18 -16 2 0 -10 -5 -16
-12 -13 -7 2 -12 11 -10 18 3 10 -1 9 -15 -2 -10 -9 -24 -14 -32 -11 -9 3 -11
0 -6 -9 5 -8 5 -11 0 -7 -4 4 -14 3 -22 -4 -11 -9 -12 -7 -8 8 5 15 3 15 -11
-4 -16 -22 -18 -22 -37 -5 -11 10 -17 13 -14 7 10 -16 -25 -28 -35 -12 -5 8
-8 9 -8 2 0 -7 -11 -14 -25 -16 -20 -4 -23 -3 -14 8 8 9 8 14 1 14 -6 0 -14
-9 -17 -20 -4 -11 -11 -18 -16 -14 -5 3 -7 11 -3 17 3 7 0 5 -8 -4 -7 -9 -19
-14 -27 -11 -9 3 -11 0 -7 -9 4 -8 0 -5 -10 6 -16 20 -16 20 -11 -2 3 -15 1
-20 -9 -16 -8 3 -11 10 -8 17 3 6 -2 2 -10 -8 -9 -11 -16 -14 -16 -8 0 7 -5
12 -11 12 -5 0 -7 -4 -4 -10 3 -5 1 -10 -4 -10 -6 0 -11 6 -11 13 0 7 -7 4
-15 -7 -10 -13 -15 -15 -15 -6 0 9 -5 8 -16 -6 -8 -10 -13 -14 -10 -7 10 19
-41 9 -66 -13 -12 -10 -18 -13 -14 -6 4 7 1 12 -9 12 -9 0 -14 -4 -11 -8 3 -5
-1 -9 -9 -9 -8 0 -12 3 -11 6 2 3 -6 6 -19 6 -13 0 -21 -4 -17 -9 3 -5 -5 -7
-16 -4 -12 4 -20 2 -17 -2 3 -5 1 -11 -5 -15 -5 -3 -10 -2 -10 3 0 5 -7 9 -15
9 -8 0 -12 -4 -9 -9 5 -7 -18 -13 -40 -9 -4 1 -15 -4 -22 -10 -12 -10 -17 -8
-28 7 -8 10 -12 23 -8 28 3 5 -2 7 -11 3 -11 -4 -14 -2 -10 8 3 8 8 13 12 10
4 -2 8 2 8 10 0 8 -4 12 -9 9 -7 -5 -12 26 -12 78 0 9 -3 15 -8 12 -4 -3 -8 0
-8 5 0 6 5 11 12 11 6 0 3 7 -8 16 -10 8 -13 13 -7 9 9 -4 11 -1 7 9 -3 9 -10
16 -15 16 -5 0 -9 5 -9 11 0 5 5 7 11 3 6 -3 4 7 -4 23 -8 15 -14 45 -13 65 1
20 -3 34 -8 30 -5 -3 -7 2 -3 12 4 10 3 15 -3 11 -6 -3 -11 0 -12 7 0 7 -2 18
-2 24 -1 6 -8 19 -16 29 -14 17 -14 17 10 5 25 -13 25 -13 7 8 -11 12 -16 26
-11 34 4 7 4 10 -1 6 -13 -13 -35 25 -23 39 8 9 7 13 -3 13 -11 0 -11 2 1 10
13 8 12 10 -3 10 -10 0 -15 5 -12 10 4 6 12 7 18 4 7 -4 8 -3 4 2 -5 5 -13 10
-18 10 -5 1 -11 2 -14 3 -3 0 -1 11 6 22 8 17 8 20 -1 14 -9 -5 -10 -1 -6 16
3 13 3 18 0 12 -3 -7 -10 -13 -15 -13 -6 0 -7 4 -4 10 11 18 14 51 4 45 -5 -4
-6 -11 -3 -17 4 -6 2 -8 -4 -4 -6 3 -9 18 -6 32 3 17 1 23 -7 19 -8 -5 -9 0
-4 16 7 20 5 22 -6 12 -11 -9 -14 -7 -14 12 0 13 5 21 10 18 6 -2 3 1 -5 9 -9
7 -16 24 -16 38 0 14 -6 24 -12 23 -7 -2 -9 4 -5 14 5 12 3 14 -8 8 -12 -8
-12 -6 0 8 12 15 11 17 -3 17 -10 0 -14 5 -11 10 3 6 1 10 -5 10 -6 0 -9 4 -5
9 3 5 1 13 -5 16 -8 5 -7 12 2 23 11 13 11 14 -1 7 -11 -6 -13 -3 -8 14 4 18
3 20 -8 11 -11 -9 -12 -7 -8 9 3 12 1 21 -6 21 -6 0 -11 9 -11 20 0 11 -5 19
-11 18 -6 -2 -13 5 -14 15 -2 9 1 15 6 11 5 -3 6 -10 3 -16 -5 -7 -2 -8 5 -4
9 6 9 12 -3 25 -9 10 -13 21 -9 26 5 4 2 5 -4 1 -9 -5 -13 0 -13 13 0 12 -4
21 -10 21 -5 0 -10 9 -10 21 0 11 -5 17 -10 14 -6 -4 -10 -3 -9 2 4 26 -2 44
-13 37 -8 -5 -7 0 2 11 9 11 10 16 3 11 -8 -4 -13 -1 -13 8 0 9 -5 16 -10 16
-6 0 -9 6 -8 13 2 6 -3 11 -11 9 -12 -3 -12 -1 0 14 12 15 12 17 0 9 -11 -6
-13 -4 -7 10 6 16 4 16 -10 4 -16 -13 -16 -12 -6 7 10 19 8 24 -11 37 -18 12
-20 17 -9 30 11 12 10 15 -5 13 -11 0 -17 5 -17 17 1 10 -5 17 -15 17 -13 0
-13 2 -2 9 11 7 10 10 -6 15 -14 5 -19 14 -18 31 2 17 -1 22 -12 18 -11 -4
-14 0 -11 18 2 17 -2 24 -13 23 -11 -1 -15 6 -13 22 1 13 -2 22 -7 18 -5 -3
-9 2 -9 11 0 9 -4 14 -9 11 -5 -3 -12 1 -15 10 -4 10 -2 13 7 8 8 -6 8 -3 -1
9 -8 9 -17 16 -20 15 -20 -2 -23 4 -11 19 10 11 10 14 2 9 -12 -6 -18 12 -10
30 1 3 -10 12 -25 20 -15 8 -35 28 -44 45 -10 20 -11 28 -3 24 8 -5 10 -4 5 3
-4 7 -14 12 -22 12 -8 0 -14 9 -14 20 0 11 -5 20 -11 20 -5 0 -7 5 -4 10 3 6
1 10 -5 10 -6 0 -8 5 -4 13 6 9 4 9 -8 -1 -14 -11 -16 -10 -14 5 2 10 -8 26
-23 37 -15 10 -18 16 -8 12 11 -3 16 -2 12 4 -3 6 -14 10 -23 10 -15 0 -15 2
-2 10 12 8 11 10 -7 10 -17 0 -21 5 -18 20 2 11 1 19 -3 16 -4 -2 -16 3 -27
11 -15 12 -16 14 -3 10 12 -4 15 -2 11 8 -3 8 -9 13 -13 10 -11 -7 -33 22 -25
35 3 6 -3 10 -14 10 -12 0 -20 3 -19 8 6 21 -14 50 -32 47 -13 -2 -17 1 -14
10 3 7 -4 19 -16 25 -12 6 -19 17 -16 25 7 20 -5 27 -22 12 -11 -8 -14 -8 -9
0 4 6 0 18 -8 26 -18 18 -20 31 -3 21 7 -4 8 -3 4 4 -4 6 -14 8 -23 5 -12 -5
-15 -2 -10 10 4 12 2 14 -11 10 -15 -6 -15 -4 -4 9 11 14 10 16 -10 12 -13 -2
-17 -1 -10 2 9 4 7 11 -9 25 -12 10 -25 16 -30 13 -5 -3 -6 1 -3 9 3 8 0 18
-7 23 -8 5 -10 3 -4 -6 5 -9 4 -11 -3 -6 -7 4 -12 13 -12 19 0 7 -9 19 -20 27
-11 8 -20 23 -20 34 0 16 -3 17 -12 8 -18 -18 -32 -14 -17 5 13 15 12 16 -8
11 -13 -4 -23 -2 -23 3 0 5 5 9 12 9 6 0 3 6 -7 14 -11 8 -24 12 -29 9 -5 -4
-6 -1 -2 5 4 7 2 12 -4 12 -6 0 -8 5 -4 13 5 7 0 6 -11 -3 -17 -14 -18 -13
-12 3 3 9 2 17 -4 17 -6 0 -7 4 -4 10 4 6 -1 7 -11 3 -14 -5 -16 -3 -10 12 4
11 4 16 0 13 -3 -4 -13 0 -21 8 -8 8 -20 11 -26 8 -8 -5 -8 -2 1 7 17 18 15
34 -2 20 -10 -8 -16 -9 -21 -1 -3 6 -11 7 -17 4 -7 -4 -8 -2 -4 5 4 6 13 9 19
5 23 -11 -22 21 -53 39 -23 12 -31 23 -27 36 2 10 -1 18 -9 18 -7 0 -11 -4 -8
-9 4 -5 -3 -4 -14 3 -12 7 -19 15 -17 17 5 5 -21 32 -30 32 -3 0 -3 -5 1 -12
5 -7 3 -8 -5 -4 -7 5 -10 10 -7 13 6 6 -31 43 -44 43 -5 0 -10 5 -10 11 0 5
-4 7 -10 4 -5 -3 -10 3 -10 15 0 13 -4 18 -11 14 -6 -3 -23 7 -37 23 -15 16
-20 20 -12 9 15 -21 14 -21 -6 -3 -11 9 -23 14 -27 11 -3 -3 -3 5 0 18 3 16 2
19 -5 10 -7 -11 -14 -8 -30 12 -20 26 -39 36 -26 14 5 -9 2 -9 -9 1 -18 15
-23 26 -7 16 5 -3 7 0 4 8 -3 8 -16 13 -30 11 -22 -2 -23 0 -12 14 8 10 8 13
1 9 -6 -4 -18 0 -26 8 -9 8 -24 15 -34 15 -15 0 -16 2 -3 10 13 8 12 10 -5 11
-11 1 -24 1 -29 0 -5 -1 -6 5 -3 13 4 9 1 18 -5 22 -7 4 -8 3 -4 -4 4 -7 2
-12 -3 -12 -6 0 -11 5 -11 10 0 6 -6 10 -14 10 -8 0 -17 9 -21 20 -3 11 -9 19
-13 19 -23 -4 -42 2 -37 11 3 6 -1 7 -9 4 -11 -4 -16 0 -17 12 0 11 -3 14 -6
7 -3 -10 -7 -10 -18 0 -7 7 -11 15 -8 19 2 4 -3 5 -11 2 -9 -3 -16 -1 -16 6 0
6 -4 9 -9 6 -5 -4 -11 -3 -13 1 -2 5 -16 19 -32 33 -16 14 -26 19 -22 13 11
-19 -5 -15 -20 5 -13 16 -14 16 -9 -3 5 -16 3 -16 -6 3 -7 12 -20 22 -31 22
-10 0 -18 5 -18 11 0 5 -5 7 -10 4 -6 -3 -10 1 -10 9 0 9 -5 16 -11 16 -5 0
-8 -4 -4 -9 3 -5 1 -13 -5 -16 -6 -4 -9 -1 -8 7 2 7 -5 12 -15 12 -13 -2 -15
1 -7 10 13 17 0 29 -17 15 -10 -9 -13 -7 -14 7 0 12 -3 14 -6 6 -4 -10 -9 -9
-20 5 -8 10 -12 12 -8 6 4 -9 1 -11 -10 -7 -11 5 -13 10 -5 19 9 11 7 12 -9 8
-13 -3 -21 -1 -21 7 0 10 -3 10 -15 0 -14 -11 -19 -7 -16 12 0 4 -6 5 -14 2
-8 -4 -15 -1 -15 6 0 6 -5 8 -10 5 -5 -3 -10 -1 -10 5 0 8 -6 7 -21 -1 -12 -6
-19 -7 -16 -2 3 5 -3 17 -14 26 -10 9 -19 12 -19 6 0 -6 -7 -3 -16 5 -8 9 -20
14 -25 11 -5 -4 -9 -1 -9 5 0 6 -4 9 -9 5 -5 -3 -17 5 -27 17 -14 20 -16 21
-10 3 6 -18 5 -19 -7 -3 -11 14 -16 15 -26 5 -10 -9 -11 -9 -6 3 4 11 -1 16
-16 17 -12 1 -26 8 -30 15 -7 10 -9 10 -9 -1 0 -12 -3 -11 -12 2 -17 22 -57
30 -77 14 -12 -10 -14 -9 -8 7 6 14 4 17 -9 12 -15 -6 -15 -4 -3 10 13 16 12
16 -9 5 -12 -6 -22 -7 -22 -2 0 5 -9 7 -20 4 -11 -3 -20 0 -20 6 0 6 -10 11
-21 11 -12 0 -28 8 -35 18 -12 14 -13 15 -8 1 3 -10 0 -20 -6 -24 -6 -3 -10
-3 -9 2 3 19 -2 33 -12 33 -5 0 -7 -4 -4 -10 3 -6 -1 -7 -9 -4 -9 3 -13 11 -9
17 3 6 1 7 -6 3 -6 -4 -19 -2 -28 6 -15 11 -16 11 -10 -7 6 -18 5 -18 -12 3
-23 26 -33 28 -24 5 5 -16 4 -17 -8 -2 -18 21 -53 34 -43 16 6 -9 5 -9 -8 0
-8 7 -18 10 -21 6 -4 -3 -7 -1 -7 7 0 10 -3 10 -14 1 -11 -9 -16 -9 -22 0 -4
8 -3 9 4 5 18 -11 14 0 -5 15 -13 11 -15 11 -9 1 10 -16 -25 -13 -36 3 -5 6
-8 4 -8 -5 0 -13 -1 -13 -10 0 -7 11 -10 11 -10 2 0 -7 -4 -11 -10 -7 -5 3 -8
11 -6 18 1 7 1 9 -1 5 -3 -5 -11 -8 -19 -8 -9 0 -13 3 -11 8 3 4 -6 8 -19 8
-23 2 -24 1 -7 -12 17 -13 17 -14 -2 -7 -11 4 -25 13 -31 21 -9 12 -13 13 -19
2 -6 -9 -4 -11 5 -5 9 6 11 4 5 -4 -5 -9 -14 -6 -33 11 -14 13 -22 18 -19 12
4 -7 -2 -14 -14 -17 -13 -3 -22 0 -26 10 -5 12 -7 12 -14 1 -7 -10 -9 -10 -9
0 0 6 -5 12 -11 12 -5 0 -7 -6 -3 -12 6 -10 4 -10 -7 -2 -26 21 -59 24 -60 6
-1 -10 -4 -7 -9 8 -6 18 -8 20 -9 7 -1 -17 -3 -17 -23 -3 -17 12 -25 13 -36 4
-10 -9 -15 -9 -21 0 -4 7 -17 14 -30 17 -12 2 -19 0 -16 -6 4 -5 10 -7 15 -4
5 3 11 1 15 -4 3 -6 -6 -8 -21 -5 -35 6 -38 7 -44 4 -16 -7 -62 -6 -66 2 -3 5
-12 4 -20 -3 -17 -14 -19 2 -2 21 7 8 0 4 -16 -10 l-28 -25 6 25 c3 14 3 19 0
13 -3 -7 -13 -13 -23 -13 -9 0 -23 -6 -30 -12 -11 -10 -13 -10 -7 0 9 16 -6
16 -23 0 -11 -10 -13 -10 -7 0 4 6 3 12 -1 12 -5 0 -15 -6 -22 -12 -11 -10
-14 -10 -18 0 -3 6 -9 12 -14 12 -6 0 -8 -4 -5 -8 3 -5 -1 -9 -9 -9 -8 0 -11
5 -7 11 3 6 -6 3 -21 -7 -23 -15 -26 -15 -20 -1 5 14 3 15 -14 6 -15 -8 -23
-8 -32 1 -10 9 -11 8 -5 -7 6 -16 5 -17 -16 -6 -21 11 -22 10 -16 -6 7 -17 6
-17 -13 0 -19 18 -21 18 -27 2 -5 -14 -9 -15 -15 -4 -7 10 -9 10 -9 0 0 -10
-5 -10 -23 -1 -19 10 -20 10 -10 -2 10 -12 6 -14 -25 -13 -20 1 -43 -3 -51 -9
-12 -10 -13 -9 -6 3 4 8 -5 4 -21 -10 -15 -14 -22 -17 -15 -7 8 9 11 20 7 24
-3 4 -13 -2 -21 -13 -8 -10 -15 -15 -15 -10 0 5 -8 2 -17 -5 -9 -8 -14 -9 -10
-3 3 6 -1 11 -9 11 -9 0 -13 -6 -9 -16 3 -8 3 -12 -1 -8 -4 4 -12 2 -19 -3 -8
-7 -12 -5 -12 5 0 8 5 11 10 8 6 -3 7 -1 3 5 -4 6 -13 9 -21 6 -8 -4 -12 -10
-9 -15 3 -5 -2 -6 -10 -3 -9 3 -16 10 -16 15 0 5 -4 9 -10 9 -5 0 -7 -7 -4
-15 4 -10 2 -13 -8 -10 -8 3 -23 -5 -34 -17 -19 -22 -19 -23 1 -8 17 13 16 11
-4 -17 -12 -18 -25 -33 -28 -33 -3 0 0 6 6 14 9 11 9 16 0 22 -7 4 -9 3 -5 -4
3 -6 2 -14 -4 -17 -8 -5 -8 -11 0 -20 8 -9 6 -14 -5 -19 -9 -3 -13 -11 -10
-16 4 -6 3 -10 -2 -9 -20 3 -25 -2 -13 -16 11 -13 10 -14 -2 -10 -8 3 -21 -1
-28 -10 -8 -10 -9 -15 -1 -15 6 0 11 5 11 12 0 6 3 8 6 5 9 -9 -16 -38 -27
-31 -5 3 -6 -2 -3 -10 3 -9 1 -16 -5 -16 -6 0 -11 -5 -11 -11 0 -5 6 -7 13 -4
6 4 3 0 -7 -9 -10 -8 -23 -13 -27 -10 -5 3 -6 -1 -3 -9 3 -8 0 -18 -5 -22 -6
-3 -8 -11 -5 -17 4 -6 0 -14 -7 -19 -8 -4 -14 -14 -14 -21 -1 -7 -7 -12 -14
-10 -7 1 -10 -2 -6 -7 3 -6 13 -7 23 -4 14 5 14 3 -2 -9 -10 -8 -16 -20 -13
-25 4 -6 -1 -17 -11 -24 -15 -13 -16 -12 -3 4 9 11 10 17 2 17 -11 0 -13 -4
-14 -37 -1 -10 -8 -22 -15 -27 -12 -7 -12 -10 -1 -17 11 -7 10 -9 -4 -9 -15 0
-16 -3 -6 -22 11 -21 11 -22 -4 -10 -14 12 -16 11 -12 -7 2 -11 -3 -27 -11
-35 -17 -18 -18 -29 -1 -21 6 4 3 -1 -8 -10 -11 -9 -20 -24 -20 -33 0 -9 -4
-23 -9 -31 -5 -7 -11 -30 -13 -50 -3 -20 -10 -39 -17 -43 -6 -4 -7 -8 -2 -8 4
0 -2 -8 -14 -18 -18 -14 -19 -19 -7 -19 9 0 13 5 10 10 -3 6 -1 7 6 3 8 -5 7
-13 -4 -29 -8 -12 -15 -32 -15 -44 0 -13 -5 -23 -11 -23 -7 0 -9 -10 -7 -25 3
-14 1 -25 -5 -25 -5 0 -4 -7 3 -15 11 -13 10 -14 -4 -9 -12 5 -15 2 -10 -10 4
-9 1 -16 -6 -16 -9 0 -6 -8 6 -22 13 -15 14 -18 3 -10 -14 10 -18 10 -23 -5
-4 -10 -2 -19 3 -21 6 -2 11 -8 11 -13 0 -6 -4 -7 -10 -4 -9 6 -15 -22 -11
-52 1 -8 -5 -10 -16 -6 -17 7 -17 6 0 -11 19 -20 23 -31 6 -20 -7 4 -10 1 -7
-7 3 -8 -2 -20 -11 -27 -9 -8 -11 -11 -5 -8 7 3 15 -1 18 -10 3 -8 2 -12 -3
-9 -5 3 -12 1 -16 -5 -3 -5 -1 -10 5 -10 6 0 8 -5 5 -10 -4 -6 -11 -8 -16 -5
-12 8 2 -28 15 -37 7 -5 4 -8 -7 -8 -11 0 -15 -5 -11 -11 3 -6 0 -15 -7 -20
-12 -7 -11 -9 1 -9 13 0 13 -1 0 -10 -13 -9 -13 -10 0 -10 13 0 13 -1 0 -10
-11 -7 -11 -10 -2 -10 7 0 10 -5 7 -10 -5 -8 -12 -7 -23 2 -11 8 -10 4 3 -11
17 -21 17 -23 3 -18 -12 4 -15 2 -11 -8 3 -8 9 -12 14 -9 5 3 6 -2 3 -10 -3
-9 -9 -14 -13 -12 -3 2 -7 -7 -7 -20 -1 -13 2 -22 6 -19 7 4 7 -17 0 -35 -1
-3 -2 -8 -1 -12 0 -5 -5 -8 -12 -8 -8 0 -7 -4 3 -10 8 -5 11 -10 5 -10 -6 0
-10 -26 -10 -59 1 -33 -3 -57 -7 -55 -4 3 -8 0 -8 -5 0 -6 6 -11 13 -11 6 0 4
-5 -6 -11 -17 -10 -17 -12 -2 -29 12 -14 13 -20 4 -26 -8 -5 -10 -3 -4 6 5 8
4 11 -2 7 -6 -4 -11 -23 -10 -42 1 -29 3 -32 16 -22 14 11 14 10 2 -5 -7 -10
-10 -25 -7 -34 5 -14 4 -15 -9 -4 -14 11 -14 10 -6 -12 7 -18 6 -29 -2 -38 -9
-10 -9 -11 1 -6 13 8 17 -6 5 -18 -9 -9 -11 -46 -3 -46 9 0 6 -32 -4 -48 -4
-6 -2 -12 3 -12 6 0 11 -5 11 -11 0 -5 -4 -8 -9 -4 -5 3 -13 1 -16 -5 -4 -6
-1 -9 6 -8 15 3 18 -31 5 -50 -7 -9 -5 -16 3 -22 11 -6 11 -9 0 -13 -12 -5
-12 -6 0 -6 11 -1 11 -4 1 -16 -10 -12 -10 -15 0 -15 10 0 10 -3 0 -15 -9 -10
-9 -15 -1 -15 6 0 11 -5 11 -11 0 -5 -4 -8 -9 -4 -5 3 -13 1 -16 -5 -4 -6 -1
-9 6 -8 7 2 12 -10 14 -30 1 -26 -2 -32 -14 -27 -9 4 -7 -3 7 -15 19 -18 22
-40 6 -40 -3 0 -2 5 1 10 3 6 1 10 -5 10 -7 0 -9 -7 -6 -16 3 -9 6 -17 6 -20
0 -2 8 -1 18 2 9 3 6 -2 -8 -10 -14 -8 -20 -15 -15 -16 15 0 17 -50 2 -51 -6
0 -3 -4 8 -9 11 -5 14 -9 7 -9 -7 -1 -10 -6 -7 -11 4 -6 12 -8 18 -4 7 3 4 -1
-6 -9 -13 -11 -15 -17 -7 -22 9 -6 9 -10 -1 -16 -11 -7 -9 -9 6 -10 11 0 15
-3 8 -5 -8 -4 -9 -13 -3 -30 6 -16 6 -24 -1 -24 -6 0 -7 -5 -4 -10 4 -6 12 -8
18 -4 7 3 3 -2 -7 -10 -15 -12 -16 -16 -5 -16 12 0 12 -2 -1 -10 -12 -8 -12
-10 -1 -10 8 0 11 -7 8 -20 -3 -12 1 -24 11 -30 14 -8 13 -10 -8 -10 -17 -1
-20 -4 -10 -8 8 -4 16 -15 18 -26 2 -10 -1 -15 -7 -11 -7 3 -8 0 -5 -9 3 -9
10 -14 14 -11 5 3 7 -7 6 -22 -2 -16 1 -36 6 -47 7 -13 7 -16 -1 -12 -6 4 -11
2 -11 -3 0 -6 5 -11 11 -11 8 0 7 -5 -1 -16 -11 -12 -11 -15 0 -12 17 4 20
-31 5 -51 -7 -11 -7 -13 3 -7 8 5 12 -1 12 -23 0 -16 -5 -31 -12 -33 -7 -3 -5
-7 6 -11 11 -5 15 -3 10 5 -4 6 -3 8 4 4 10 -6 9 -36 -3 -55 -3 -5 0 -13 6
-17 8 -5 9 -3 4 6 -6 9 -4 11 5 5 10 -6 9 -11 -5 -22 -15 -10 -15 -13 -4 -13
11 0 15 -10 13 -40 -1 -25 2 -38 8 -34 7 4 9 -6 6 -30 -2 -23 0 -36 7 -36 7 0
11 -16 11 -40 -1 -31 2 -39 13 -35 11 4 12 3 1 -10 -10 -12 -10 -15 0 -15 8 0
11 -3 7 -6 -3 -3 -2 -17 4 -31 7 -18 6 -22 -4 -17 -6 4 -4 -2 5 -13 10 -11 18
-24 18 -29 0 -5 -4 -3 -9 5 -6 9 -8 4 -8 -17 1 -17 6 -28 13 -25 7 2 10 -6 9
-21 -2 -14 1 -26 6 -26 6 0 7 -4 4 -10 -3 -5 -2 -10 4 -10 6 0 8 -6 5 -14 -3
-8 -1 -17 5 -21 6 -3 11 -13 11 -21 0 -10 -5 -12 -12 -8 -9 5 -9 3 1 -9 7 -9
18 -14 25 -10 6 4 5 -1 -3 -10 -12 -15 -11 -20 3 -35 21 -24 21 -38 -2 -21 -9
7 -6 0 8 -15 14 -16 18 -25 10 -21 -9 5 -7 -1 5 -15 11 -13 15 -20 8 -17 -6 4
-15 3 -18 -3 -4 -6 -1 -9 5 -8 7 2 17 -5 23 -15 10 -14 9 -20 -3 -28 -12 -9
-11 -10 7 -6 19 4 21 2 12 -20 -8 -22 -7 -24 8 -19 15 5 15 4 -1 -9 -17 -13
-17 -15 -3 -15 11 0 14 -5 10 -17 -5 -13 -3 -15 12 -9 18 7 18 6 -1 -15 -10
-12 -14 -19 -7 -15 17 9 34 -25 22 -46 -8 -14 -6 -16 10 -13 15 3 19 -1 16
-16 -5 -26 5 -50 17 -43 6 4 5 -4 -2 -16 -8 -15 -8 -20 -1 -16 7 5 11 -4 11
-23 0 -21 5 -31 16 -31 8 0 12 -4 9 -10 -3 -5 -1 -10 4 -10 6 0 11 -5 11 -10
0 -7 -8 -7 -22 1 l-23 12 20 -20 c11 -11 23 -19 27 -16 4 2 5 -4 1 -13 -5 -13
-3 -15 8 -9 8 4 11 5 7 0 -4 -4 -2 -15 5 -23 9 -13 9 -14 0 -8 -7 4 -13 2 -13
-3 0 -6 6 -11 13 -11 7 0 13 -9 14 -20 1 -13 -2 -18 -9 -14 -7 4 -8 2 -4 -5 4
-6 11 -9 15 -7 4 3 13 1 21 -5 12 -7 11 -9 -5 -10 l-20 0 20 -9 c12 -5 14 -9
6 -9 -11 -1 -10 -5 3 -20 10 -11 15 -25 11 -30 -3 -6 2 -11 12 -11 15 0 16 -2
3 -10 -12 -8 -12 -10 5 -10 17 0 17 -2 5 -10 -13 -8 -12 -10 4 -10 15 0 16 -3
7 -14 -8 -10 -9 -16 -1 -21 6 -3 7 -11 4 -17 -4 -7 -2 -8 5 -4 9 6 9 12 -1 24
-12 15 -11 16 5 3 12 -10 17 -24 15 -42 -3 -19 0 -25 9 -22 8 3 13 -3 13 -17
0 -11 4 -19 9 -16 5 4 7 -3 4 -14 -4 -15 0 -20 13 -20 14 0 16 -2 6 -9 -10 -6
-9 -10 7 -14 12 -3 21 -9 20 -14 -4 -24 2 -53 11 -48 6 4 10 -5 10 -20 0 -14
4 -24 9 -21 5 3 12 -1 15 -10 4 -10 2 -13 -7 -9 -6 4 -4 0 6 -8 10 -8 19 -25
20 -37 1 -12 13 -34 27 -49 14 -15 32 -35 40 -46 13 -17 13 -18 0 -11 -8 4 -4
-1 9 -12 15 -12 21 -24 16 -32 -5 -8 -4 -11 2 -7 6 4 14 -1 17 -10 4 -9 1 -20
-6 -25 -7 -4 -8 -8 -3 -8 6 0 17 6 24 13 10 10 11 9 6 -5 -4 -11 -2 -18 5 -18
6 0 8 -4 5 -10 -6 -9 8 -14 28 -11 5 1 6 -3 2 -9 -3 -6 -10 -8 -14 -6 -4 3 -8
-1 -8 -8 0 -7 10 -13 21 -12 17 1 21 -5 21 -30 -1 -22 4 -31 15 -30 8 1 14 -5
13 -11 -2 -7 4 -13 12 -13 9 0 12 -6 8 -17 -4 -11 -3 -14 5 -9 11 6 17 -5 13
-26 0 -5 4 -8 10 -8 5 0 7 -6 3 -12 -5 -8 -1 -8 12 2 10 8 16 10 11 5 -8 -10
18 -54 44 -72 9 -7 20 -24 23 -38 4 -14 11 -23 17 -19 6 3 13 -3 16 -15 3 -12
10 -21 15 -21 5 0 6 -4 3 -10 -4 -6 1 -7 11 -3 12 4 15 3 10 -5 -4 -8 0 -12
11 -12 15 0 16 -2 3 -10 -11 -7 -11 -10 -2 -10 8 0 10 -5 6 -12 -6 -9 -3 -9 9
0 14 12 16 11 12 -8 -3 -14 0 -20 8 -17 7 2 18 -2 25 -9 7 -8 10 -14 6 -14 -3
0 -1 -7 6 -15 7 -8 16 -12 21 -9 5 3 6 -1 3 -9 -6 -18 43 -60 60 -50 6 3 8 3
4 -2 -10 -11 32 -46 45 -38 6 3 7 1 3 -6 -4 -6 0 -14 8 -17 9 -3 14 -9 12 -13
-2 -3 2 -15 10 -26 10 -13 14 -15 14 -4 1 8 8 2 16 -13 8 -16 17 -28 20 -28 3
0 3 4 0 8 -3 5 1 9 9 9 8 0 12 -4 9 -9 -3 -5 10 -25 30 -44 34 -33 54 -45 41
-24 -3 6 -1 10 6 10 6 0 9 -8 6 -20 -3 -11 0 -20 6 -20 7 0 5 -5 -4 -10 -9 -5
-20 -21 -23 -35 -4 -14 -13 -25 -21 -25 -8 0 -15 -5 -15 -11 0 -5 -5 -7 -11
-4 -6 4 -9 0 -7 -11 2 -11 -7 -23 -22 -31 -14 -7 -18 -13 -10 -13 13 0 13 -1
0 -10 -9 -6 -20 -5 -30 3 -12 9 -13 9 -2 -3 14 -17 16 -34 2 -25 -5 3 -10 -2
-10 -12 0 -15 -2 -16 -11 -3 -9 12 -10 11 -6 -7 3 -12 2 -22 -2 -21 -20 2 -31
-3 -25 -14 5 -8 2 -9 -9 -5 -9 3 -16 3 -16 -1 3 -21 -2 -32 -13 -26 -7 5 -9 2
-5 -9 4 -12 2 -14 -11 -10 -9 3 -14 3 -10 -2 4 -4 0 -14 -10 -22 -9 -8 -11
-12 -5 -8 9 4 11 1 7 -9 -3 -9 -14 -16 -23 -16 -14 0 -14 -2 -1 -10 12 -8 10
-10 -9 -10 -21 0 -22 -2 -10 -17 10 -11 10 -14 2 -9 -7 4 -23 0 -35 -8 -12 -9
-18 -16 -12 -16 5 0 16 6 24 13 12 10 12 9 1 -5 -7 -10 -18 -18 -24 -18 -5 0
-27 -18 -48 -40 -21 -22 -34 -40 -28 -40 6 0 7 -5 4 -10 -4 -6 -11 -8 -16 -4
-6 3 -9 -2 -7 -12 2 -12 -2 -18 -11 -16 -8 2 -11 -3 -8 -12 4 -10 1 -13 -9 -9
-8 3 -14 2 -13 -3 5 -29 -2 -43 -19 -37 -14 6 -15 4 -4 -9 10 -13 10 -18 1
-24 -8 -5 -9 -3 -4 6 6 9 4 11 -4 6 -7 -5 -10 -15 -7 -23 3 -8 2 -11 -3 -8 -5
3 -12 -4 -16 -14 -3 -12 -12 -18 -20 -15 -10 4 -13 0 -10 -14 2 -12 -3 -23
-12 -26 -9 -4 -13 -9 -10 -12 3 -4 -1 -13 -9 -21 -8 -8 -12 -19 -9 -24 4 -5
-1 -6 -9 -3 -11 4 -16 0 -16 -15 0 -14 -5 -19 -15 -15 -11 5 -13 2 -9 -10 4
-10 0 -18 -10 -22 -9 -3 -13 -10 -10 -16 7 -11 -33 -51 -44 -44 -4 2 -8 -4 -8
-14 0 -11 5 -16 11 -12 6 4 3 -1 -8 -10 -11 -11 -15 -23 -11 -30 5 -9 2 -8
-10 1 -16 13 -18 13 -16 0 4 -25 0 -39 -11 -39 -5 0 -7 6 -3 13 4 7 3 9 -2 4
-5 -5 -10 -13 -10 -18 -1 -5 -2 -12 -3 -16 -3 -17 -49 -62 -56 -55 -5 4 -5 2
-2 -5 9 -15 -2 -45 -14 -37 -5 3 -9 -5 -9 -16 0 -16 -4 -20 -16 -16 -8 3 -12
2 -9 -4 3 -6 1 -10 -5 -10 -6 0 -9 -4 -6 -9 4 -5 2 -11 -3 -13 -5 -1 -11 -10
-13 -18 -2 -8 -11 -21 -21 -28 -9 -7 -14 -18 -11 -24 4 -6 0 -16 -8 -22 -8 -6
-17 -15 -19 -21 -2 -5 -10 -9 -18 -8 -9 1 -10 -2 -2 -10 7 -7 2 -18 -18 -37
-22 -22 -26 -31 -18 -45 8 -15 7 -17 -5 -12 -12 4 -14 0 -10 -15 3 -14 1 -19
-6 -14 -7 4 -12 1 -12 -9 0 -11 -5 -15 -14 -12 -10 4 -13 1 -9 -9 3 -8 0 -20
-6 -28 -6 -7 -8 -16 -4 -19 3 -4 -2 -10 -11 -13 -14 -5 -15 -9 -4 -15 10 -7 9
-9 -4 -9 -10 0 -17 -4 -15 -9 1 -5 -2 -10 -8 -11 -14 -2 -27 -28 -20 -39 3 -5
-4 -16 -15 -24 -11 -7 -17 -18 -12 -23 4 -4 -1 -3 -10 5 -15 11 -16 10 -12
-12 3 -18 -1 -26 -16 -30 -11 -3 -20 -12 -20 -21 0 -9 -5 -16 -11 -16 -5 0 -7
-4 -4 -10 3 -5 1 -10 -5 -10 -6 0 -8 -5 -5 -10 4 -6 1 -17 -5 -25 -6 -8 -9
-18 -6 -23 3 -6 -2 -16 -12 -23 -16 -13 -16 -13 -2 6 14 19 14 19 -2 6 -10 -7
-15 -17 -13 -22 3 -4 -5 -18 -17 -30 -13 -12 -16 -18 -8 -14 12 6 13 5 2 -6
-16 -17 -16 -42 1 -34 6 4 4 0 -6 -8 -16 -13 -23 -30 -26 -60 -1 -5 -5 -6 -10
-3 -5 3 -11 -4 -14 -15 -4 -14 -10 -18 -19 -13 -10 6 -10 4 1 -9 12 -15 11
-17 -3 -17 -10 0 -14 -4 -11 -10 3 -5 -2 -10 -12 -10 -15 0 -16 -2 -3 -10 14
-9 7 -15 -14 -11 -5 1 -6 -5 -3 -13 4 -9 1 -18 -5 -22 -6 -4 -8 -3 -4 4 3 6 3
13 -2 16 -5 3 -9 -1 -10 -9 -1 -8 -3 -22 -4 -30 -1 -8 -8 -15 -16 -15 -9 0
-13 -7 -9 -20 3 -11 2 -18 -1 -16 -10 5 -32 -20 -25 -28 4 -3 1 -6 -5 -6 -6 0
-9 -7 -5 -17 4 -11 3 -14 -5 -9 -7 4 -12 1 -12 -7 0 -8 -7 -17 -15 -21 -9 -3
-12 -12 -8 -22 5 -13 3 -15 -8 -9 -12 8 -12 6 0 -9 12 -15 12 -17 0 -14 -9 2
-14 -5 -13 -19 1 -13 -2 -23 -7 -23 -5 0 -5 -8 -2 -17 5 -12 2 -15 -9 -11 -11
5 -14 0 -12 -18 1 -13 -2 -22 -7 -18 -5 3 -9 -2 -9 -10 0 -8 -10 -24 -22 -36
-12 -11 -18 -20 -13 -20 4 0 0 -9 -10 -20 -10 -11 -14 -20 -10 -20 5 0 1 -6
-10 -13 -10 -8 -15 -19 -11 -25 4 -7 2 -12 -4 -12 -7 0 -9 -7 -6 -16 3 -8 2
-13 -3 -10 -8 5 -25 -29 -22 -46 1 -5 -7 -8 -17 -9 -9 0 -12 -3 -6 -5 9 -4 9
-11 0 -29 -6 -14 -14 -25 -18 -25 -4 0 -5 -12 -3 -27 2 -16 2 -22 -1 -15 -8
16 -25 5 -18 -12 3 -7 -3 -16 -13 -20 -13 -5 -14 -9 -5 -15 7 -4 10 -15 6 -24
-3 -9 -10 -15 -14 -12 -4 3 -10 -2 -13 -9 -3 -8 -1 -17 6 -20 7 -4 1 -4 -11
-2 -13 3 -21 2 -18 -1 3 -4 0 -13 -7 -22 -10 -14 -10 -14 5 -3 12 10 18 10 24
1 4 -7 3 -9 -3 -6 -6 4 -13 0 -17 -8 -3 -9 -12 -12 -23 -9 -14 5 -15 4 -4 -4
8 -6 10 -15 5 -23 -5 -8 -9 -18 -10 -24 0 -5 -2 -16 -2 -23 -1 -8 -7 -10 -14
-6 -10 6 -10 4 0 -8 10 -13 10 -17 0 -21 -10 -4 -10 -6 1 -6 8 -1 5 -9 -10
-22 -13 -11 -17 -17 -9 -13 12 7 13 5 3 -8 -7 -8 -9 -19 -5 -23 4 -5 1 -5 -5
-1 -8 4 -13 1 -13 -9 0 -10 -5 -13 -12 -9 -8 5 -7 0 2 -11 9 -11 10 -16 3 -11
-8 4 -13 2 -13 -8 0 -8 -5 -18 -12 -22 -7 -4 -8 -3 -4 4 10 17 1 15 -14 -4 -8
-8 -9 -14 -4 -13 26 5 26 -3 -1 -22 -16 -12 -21 -18 -11 -15 15 5 17 4 8 -7
-7 -8 -8 -18 -4 -23 4 -4 -1 -3 -10 4 -13 11 -16 11 -14 0 1 -7 5 -18 9 -25 4
-6 2 -15 -4 -19 -8 -5 -9 -3 -4 6 6 9 4 11 -4 6 -7 -5 -10 -14 -7 -22 3 -8 0
-14 -7 -14 -9 0 -8 -3 1 -9 11 -7 11 -9 -2 -14 -9 -4 -16 -11 -16 -17 0 -6 5
-8 10 -5 6 4 1 -10 -10 -30 -11 -20 -15 -33 -8 -29 9 6 9 3 -1 -9 -7 -9 -18
-14 -24 -10 -6 3 -7 1 -3 -6 4 -6 11 -9 15 -7 4 3 8 -1 8 -9 0 -8 -4 -12 -9
-9 -4 3 -8 0 -8 -6 0 -6 -5 -8 -13 -4 -9 6 -9 5 0 -7 9 -11 8 -18 -1 -31 -7
-10 -16 -15 -19 -11 -4 3 -7 1 -7 -5 0 -7 5 -12 12 -12 6 0 3 -6 -8 -14 -10
-8 -16 -18 -12 -22 4 -4 0 -13 -10 -21 -11 -10 -12 -12 -2 -8 8 4 6 -1 -4 -9
-11 -9 -16 -16 -10 -16 5 0 3 -4 -4 -9 -7 -4 -14 -17 -15 -29 -1 -15 -5 -18
-13 -11 -8 7 -10 2 -6 -17 3 -16 1 -25 -5 -21 -5 3 -10 0 -10 -8 0 -8 4 -15 8
-15 5 0 3 -11 -3 -25 -6 -14 -16 -25 -21 -25 -5 0 -4 -7 3 -15 11 -13 10 -14
-5 -9 -13 5 -16 4 -11 -5 4 -6 2 -19 -6 -28 -11 -14 -11 -16 2 -9 11 6 11 4
-1 -6 -9 -7 -15 -21 -13 -30 1 -10 -2 -18 -7 -18 -6 0 -9 -6 -8 -12 3 -28 -2
-40 -15 -35 -9 4 -12 -2 -10 -19 1 -13 -2 -24 -7 -24 -6 0 -7 -4 -4 -10 3 -5
1 -10 -4 -10 -6 0 -11 -9 -11 -21 0 -13 -4 -18 -12 -13 -6 4 -8 3 -4 -4 3 -6
2 -14 -4 -17 -8 -5 -7 -12 2 -23 10 -12 10 -14 1 -8 -9 5 -13 1 -13 -13 0 -11
-5 -23 -11 -27 -8 -4 -7 -9 2 -15 12 -7 12 -9 1 -9 -8 0 -12 -6 -9 -12 2 -7
-3 -19 -12 -26 -9 -8 -10 -11 -3 -7 15 8 16 -7 0 -23 -9 -9 -9 -12 2 -12 12
-1 11 -3 -2 -10 -9 -6 -15 -18 -14 -28 2 -9 -4 -22 -13 -29 -15 -11 -14 -12 1
-18 16 -6 16 -9 1 -40 -11 -22 -21 -31 -31 -28 -12 5 -13 3 -4 -13 7 -13 6
-26 -4 -46 -8 -15 -12 -28 -8 -28 4 0 0 -7 -7 -16 -8 -9 -12 -28 -11 -42 2
-13 0 -22 -6 -18 -5 3 -9 -5 -8 -17 1 -12 -5 -28 -12 -36 -11 -12 -11 -15 0
-22 11 -7 11 -9 0 -9 -8 0 -12 -6 -9 -12 2 -7 -3 -19 -12 -26 -9 -8 -10 -11
-3 -7 6 3 12 2 12 -4 0 -5 -6 -12 -12 -14 -10 -4 -10 -6 0 -6 6 -1 12 -6 12
-12 0 -5 -5 -7 -11 -3 -9 5 -10 -1 -5 -20 5 -19 2 -28 -10 -33 -13 -5 -13 -7
-2 -14 9 -6 9 -9 1 -9 -6 0 -10 -9 -8 -20 2 -11 -1 -20 -6 -20 -6 0 -7 -5 -4
-10 4 -6 1 -18 -7 -27 -9 -12 -9 -15 -1 -9 9 5 11 2 7 -8 -3 -9 -10 -16 -14
-16 -4 0 -6 -12 -4 -27 1 -15 -1 -33 -7 -39 -5 -6 -10 -34 -11 -62 -2 -28 -5
-49 -7 -46 -10 10 -28 -51 -18 -64 6 -8 6 -12 -2 -12 -7 0 -9 -5 -5 -12 13
-21 12 -50 -3 -55 -11 -4 -11 -8 -1 -21 10 -12 10 -14 1 -8 -18 10 -16 -4 4
-28 15 -18 16 -19 1 -8 -15 12 -16 10 -14 -20 1 -18 5 -38 8 -44 4 -6 4 -14 1
-18 -11 -10 -11 -128 0 -150 5 -11 5 -16 0 -13 -5 4 -10 -7 -10 -23 0 -17 5
-30 11 -30 6 0 5 -4 -3 -9 -10 -6 -10 -10 -1 -16 9 -6 9 -9 -1 -16 -11 -6 -10
-9 4 -15 17 -6 17 -7 0 -21 -10 -8 -13 -12 -6 -8 9 4 11 -7 9 -40 -2 -25 1
-45 7 -45 5 0 4 -6 -2 -14 -9 -10 -9 -16 -1 -21 8 -5 8 -10 0 -20 -7 -9 -8
-15 -1 -19 6 -4 7 -15 1 -30 -5 -15 -5 -27 3 -35 8 -8 7 -11 -3 -11 -13 0 -13
-2 0 -11 11 -8 12 -12 3 -16 -10 -4 -10 -7 0 -17 7 -8 12 -40 12 -84 0 -40 2
-72 5 -72 3 0 6 -11 6 -25 1 -14 -2 -23 -6 -20 -9 6 -7 -11 5 -37 4 -10 5 -36
3 -57 -2 -22 1 -39 6 -38 4 1 11 -4 14 -12 2 -8 0 -11 -5 -8 -5 3 -10 0 -10
-8 0 -8 5 -11 11 -8 6 4 5 -1 -3 -10 -10 -13 -10 -17 -1 -17 9 0 9 -4 2 -12
-17 -21 -17 -24 -3 -41 11 -14 11 -20 0 -34 -11 -14 -12 -15 -1 -9 11 7 13 1
9 -27 -2 -19 -7 -39 -11 -45 -3 -5 1 -15 9 -22 11 -9 12 -17 5 -30 -13 -25
-13 -33 1 -24 7 4 10 1 7 -7 -3 -8 -1 -24 3 -36 5 -13 4 -25 -2 -28 -5 -4 -6
-12 -2 -18 5 -7 9 -25 10 -42 0 -16 2 -38 2 -48 1 -12 6 -16 14 -11 9 6 9 4 0
-7 -17 -17 -16 -39 1 -39 16 0 16 -31 1 -42 -6 -5 -5 -8 4 -8 8 0 11 -7 8 -20
-3 -12 1 -24 11 -30 14 -8 14 -10 2 -10 -13 -1 -13 -2 0 -13 15 -12 20 -26 23
-59 1 -10 5 -18 9 -18 4 0 8 -12 8 -26 0 -17 4 -23 12 -18 8 5 7 0 -2 -11 -9
-11 -10 -16 -2 -11 8 5 12 0 12 -14 0 -12 4 -18 10 -15 9 6 14 -8 11 -27 0 -5
4 -8 9 -8 6 0 10 -7 10 -15 0 -8 5 -15 11 -15 5 0 7 -4 4 -10 -3 -5 -2 -10 4
-10 6 0 8 -6 5 -14 -3 -8 0 -17 6 -21 8 -5 8 -11 -1 -21 -8 -10 -8 -14 0 -14
6 0 11 -7 11 -15 0 -8 5 -15 11 -15 5 0 7 -4 4 -10 -3 -5 -2 -10 4 -10 10 0 9
-19 -2 -37 -6 -9 -3 -11 7 -7 9 3 16 1 16 -5 0 -6 -6 -11 -12 -11 -7 -1 -2 -7
12 -15 14 -8 20 -14 13 -15 -7 0 -10 -7 -7 -15 4 -8 11 -12 18 -8 8 4 8 3 -1
-7 -8 -9 -6 -17 9 -32 11 -11 17 -26 14 -34 -3 -8 -1 -14 5 -14 6 0 7 -5 4
-10 -3 -6 -1 -10 5 -10 6 0 9 -4 6 -9 -4 -5 -1 -11 4 -13 6 -2 12 -13 13 -26
0 -12 5 -22 10 -22 5 0 7 -7 3 -15 -5 -13 5 -19 26 -16 4 0 4 -7 1 -16 -4 -10
-2 -14 4 -10 7 5 10 -2 8 -18 -1 -14 2 -28 8 -32 6 -4 7 -1 2 8 -6 10 -5 11 4
3 7 -6 13 -24 15 -39 2 -15 11 -34 21 -42 11 -7 14 -13 6 -13 -9 0 -8 -5 3
-16 9 -8 16 -20 16 -25 0 -6 5 -7 12 -3 7 5 8 3 3 -6 -4 -7 -2 -16 6 -21 10
-6 11 -9 2 -9 -7 0 -13 -4 -13 -10 0 -5 7 -6 17 -3 11 4 14 3 9 -5 -4 -7 -3
-12 1 -12 5 0 14 -9 21 -21 9 -13 9 -18 2 -14 -8 5 -7 0 1 -13 7 -12 17 -19
21 -16 4 3 5 -2 2 -10 -3 -9 -1 -16 4 -16 6 0 9 -9 7 -20 -2 -11 0 -18 6 -15
5 4 9 1 9 -5 0 -6 5 -8 12 -4 10 6 10 4 0 -8 -10 -13 -10 -18 -1 -24 8 -5 9
-3 4 6 -5 9 -4 11 4 6 6 -4 9 -11 6 -16 -8 -13 6 -41 18 -33 6 4 8 -2 5 -15
-4 -12 -3 -20 2 -17 11 7 22 -24 13 -37 -3 -7 -1 -8 5 -4 7 4 12 1 12 -8 0 -9
5 -16 11 -16 8 0 7 -6 -2 -17 -10 -11 -10 -14 -1 -9 7 4 12 2 12 -4 0 -6 5 -8
10 -5 6 3 10 -3 10 -15 0 -13 4 -19 12 -14 6 4 8 3 5 -3 -9 -14 15 -63 31 -63
6 0 12 -5 12 -11 0 -5 -6 -7 -12 -3 -11 7 5 -20 22 -36 3 -3 11 -18 18 -33 8
-18 18 -27 26 -24 10 4 12 0 9 -14 -4 -15 0 -19 17 -19 19 0 21 -2 10 -16 -8
-8 -9 -14 -4 -13 23 4 31 -3 28 -27 -2 -22 0 -23 14 -12 9 7 13 8 9 2 -4 -7 0
-14 8 -18 8 -3 15 -12 15 -21 0 -8 8 -15 18 -15 14 0 15 -2 2 -10 -12 -8 -12
-10 5 -11 11 0 14 -3 7 -6 -8 -3 -5 -11 10 -25 13 -11 18 -17 13 -14 -6 2 -11
-4 -11 -14 0 -14 3 -16 13 -8 11 8 12 7 7 -7 -5 -12 -4 -16 3 -12 6 4 14 0 17
-9 4 -10 2 -13 -7 -8 -6 4 -3 -2 8 -13 11 -11 25 -18 30 -15 6 3 5 -1 -1 -9
-9 -11 -9 -17 1 -26 7 -6 16 -9 19 -6 3 4 6 -3 6 -15 0 -12 5 -22 11 -22 6 0
9 -7 6 -14 -4 -11 -1 -13 10 -9 11 4 14 2 9 -5 -4 -7 -1 -12 8 -12 9 0 16 -8
16 -19 0 -10 7 -22 16 -25 10 -4 14 -12 10 -23 -4 -10 -4 -15 -1 -11 9 8 45
-23 39 -33 -2 -4 5 -11 16 -14 18 -6 19 -9 8 -23 -7 -10 -8 -14 -4 -10 12 10
47 -32 39 -45 -3 -5 -2 -7 3 -4 18 11 54 -35 54 -68 0 -8 3 -14 8 -14 19 3 33
-2 27 -10 -3 -5 1 -16 9 -24 8 -8 12 -17 9 -21 -4 -3 2 -6 13 -6 14 0 16 -2 6
-9 -10 -6 -9 -10 7 -14 12 -3 21 -12 21 -21 0 -9 7 -16 16 -16 8 0 12 -5 9
-10 -9 -15 15 -41 29 -33 6 4 5 0 -2 -9 -11 -14 -10 -16 6 -11 11 2 23 -1 27
-8 6 -8 4 -10 -4 -4 -10 6 -11 3 -2 -12 6 -11 8 -23 5 -26 -3 -3 3 -3 15 0 13
3 21 1 21 -6 0 -7 -5 -9 -10 -6 -6 3 -10 1 -10 -4 0 -6 9 -11 20 -11 11 0 20
-6 20 -14 0 -8 5 -18 12 -22 7 -5 8 -3 3 6 -5 8 -4 11 3 6 6 -4 8 -14 5 -23
-5 -13 -2 -15 15 -11 16 4 19 2 15 -10 -4 -10 -2 -13 5 -8 8 4 10 2 6 -7 -3
-8 2 -17 10 -20 8 -3 20 -16 26 -29 10 -21 10 -22 -4 -4 -15 18 -15 18 -13 -1
0 -11 7 -20 14 -21 7 -1 19 -3 27 -4 8 -1 11 -9 8 -20 -4 -17 8 -23 33 -18 5
1 7 -2 3 -6 -5 -4 1 -13 12 -21 11 -8 20 -20 20 -26 0 -18 34 -44 50 -39 9 2
6 -3 -5 -12 -14 -11 -15 -15 -5 -14 8 2 14 -3 12 -10 -2 -10 2 -10 20 -1 21
11 22 11 9 -5 -8 -9 -10 -16 -5 -15 20 4 26 -2 15 -15 -10 -12 -8 -14 11 -9
18 4 20 3 8 -6 -8 -6 -10 -11 -4 -11 6 0 21 -9 34 -20 13 -11 20 -20 16 -20
-4 0 2 -9 13 -21 11 -12 25 -18 31 -14 9 5 10 1 5 -15 -4 -14 -3 -20 2 -17 6
4 19 -1 29 -9 10 -9 12 -13 4 -9 -10 4 -9 2 3 -8 9 -8 17 -19 17 -26 0 -6 7
-11 16 -11 10 0 14 -5 10 -16 -3 -8 -2 -12 4 -9 6 3 10 1 10 -5 0 -6 5 -8 10
-5 6 3 10 0 10 -7 0 -8 9 -20 19 -28 11 -7 17 -18 14 -24 -4 -6 1 -5 10 3 15
12 17 11 17 -2 0 -11 6 -14 15 -11 11 5 13 2 8 -12 -4 -12 -3 -15 5 -10 7 4
12 2 12 -4 0 -6 5 -8 13 -4 7 5 6 0 -3 -11 -8 -10 -10 -16 -4 -12 6 3 18 -3
27 -14 9 -10 14 -19 12 -19 -3 0 2 -11 11 -25 9 -14 25 -25 36 -25 10 0 16 -5
13 -10 -3 -6 -1 -10 4 -10 6 0 11 -7 11 -15 0 -9 6 -12 17 -8 11 4 14 3 9 -5
-4 -7 -1 -12 7 -12 8 0 20 -13 27 -29 8 -19 17 -28 26 -24 9 3 14 0 12 -8 -2
-7 6 -15 16 -17 23 -5 46 -26 46 -42 0 -6 6 -10 13 -7 13 4 53 -51 48 -67 -1
-5 4 -4 13 3 12 10 16 8 22 -11 4 -13 7 -27 6 -31 -1 -4 8 -2 20 4 21 11 22
11 9 -5 -12 -14 -12 -16 4 -10 14 6 16 3 10 -17 -3 -13 -3 -19 2 -14 10 12 33
18 32 7 -3 -18 2 -32 12 -32 5 0 7 6 3 13 -4 7 -3 9 2 4 5 -5 9 -14 9 -20 1
-7 6 -11 13 -10 7 2 12 -4 12 -12 0 -8 5 -15 11 -15 5 0 7 5 3 12 -4 7 -3 8 4
4 7 -4 12 -14 12 -22 0 -8 4 -12 10 -9 6 3 10 -1 10 -11 0 -11 6 -15 19 -11
12 3 18 -1 17 -12 0 -9 5 -15 11 -14 7 2 13 -4 13 -13 0 -9 5 -12 12 -8 7 5 9
2 5 -9 -4 -12 -2 -14 10 -10 12 5 14 3 8 -7 -6 -10 -4 -12 9 -7 10 4 15 3 11
-3 -3 -6 1 -10 9 -10 9 0 16 -7 16 -17 0 -9 3 -14 6 -10 3 3 17 -6 31 -21 14
-15 20 -19 13 -9 -11 15 -10 17 3 11 8 -3 18 -12 21 -21 4 -8 13 -13 21 -9 13
4 14 2 5 -14 -6 -11 -7 -20 -3 -19 24 4 43 -3 43 -16 0 -9 6 -12 17 -8 12 5
15 2 10 -10 -3 -9 -1 -19 5 -23 7 -4 8 -3 4 4 -4 7 -1 12 9 12 10 0 13 -5 9
-12 -5 -8 -2 -9 11 -4 16 6 16 4 4 -11 -9 -11 -10 -14 -1 -9 6 4 12 3 12 -2 0
-6 7 -13 16 -16 10 -4 13 -2 9 7 -4 6 0 3 9 -7 8 -10 13 -22 11 -26 -2 -4 2
-7 10 -7 12 0 12 3 2 16 -11 14 -10 14 6 2 9 -7 17 -22 17 -32 0 -10 5 -21 12
-25 7 -5 8 -2 3 7 -5 8 4 3 18 -10 28 -25 38 -42 13 -22 -11 9 -16 9 -22 0 -4
-7 -3 -9 4 -5 6 3 13 2 16 -2 3 -5 17 -8 31 -7 14 2 23 -1 19 -6 -3 -5 -10 -7
-15 -4 -5 3 -6 -1 -3 -10 5 -12 9 -13 20 -4 12 10 13 8 8 -6 -5 -13 -4 -16 4
-11 7 4 12 2 12 -3 0 -6 3 -10 7 -10 21 3 33 -3 33 -17 0 -8 3 -13 8 -11 10 7
32 -19 24 -29 -4 -5 1 -2 11 6 15 11 18 11 15 0 -2 -7 8 -19 21 -26 14 -7 37
-24 52 -38 15 -14 32 -26 38 -26 6 0 11 -5 11 -11 0 -5 5 -7 10 -4 6 3 10 -1
10 -9 0 -9 4 -16 10 -16 5 0 22 -13 38 -28 16 -15 34 -26 40 -24 7 2 10 -3 6
-12 -7 -19 7 -21 25 -3 8 6 11 7 8 1 -3 -6 3 -16 13 -24 10 -8 16 -18 13 -24
-4 -6 1 -5 10 3 14 11 17 11 18 0 1 -8 1 -18 0 -22 -1 -5 8 -6 19 -2 15 5 18
3 14 -9 -7 -19 22 -22 30 -3 3 6 4 3 3 -8 -1 -14 3 -19 16 -17 10 2 16 -2 15
-10 -3 -12 2 -14 38 -17 8 0 12 -6 9 -11 -3 -6 3 -10 15 -10 11 0 33 -12 47
-28 14 -15 19 -18 12 -8 -12 17 -12 19 1 11 8 -5 23 -19 32 -31 10 -12 30 -25
45 -29 22 -5 24 -8 12 -17 -11 -7 -9 -9 9 -5 12 3 20 1 17 -3 -3 -5 5 -14 17
-21 27 -14 49 -35 43 -41 -2 -2 5 -9 15 -16 17 -10 18 -9 13 6 -3 9 7 1 22
-18 17 -21 25 -27 21 -15 -6 19 -5 19 8 1 9 -10 20 -15 27 -10 7 4 10 3 6 -3
-4 -6 0 -16 8 -23 13 -11 14 -10 9 4 -10 26 2 18 26 -16 12 -18 19 -25 16 -15
-3 9 -1 17 4 17 6 0 10 -7 10 -16 0 -10 5 -14 16 -10 8 3 12 2 9 -4 -3 -6 -1
-10 5 -10 6 0 8 -5 4 -11 -4 -8 0 -8 15 0 12 7 21 8 20 4 -4 -22 4 -31 31 -36
19 -4 30 -13 31 -24 0 -16 2 -15 9 2 9 20 9 20 15 -1 5 -15 12 -20 26 -17 13
4 19 0 19 -11 0 -9 6 -13 15 -10 8 4 17 -1 21 -9 3 -9 14 -14 25 -12 11 2 17
0 14 -6 -6 -8 9 -13 29 -10 5 1 3 -6 -5 -15 -13 -16 -12 -16 8 -5 19 10 22 9
17 -4 -6 -13 11 -20 38 -16 4 0 5 -6 2 -13 -4 -11 0 -13 15 -9 15 4 23 -1 30
-18 7 -18 10 -19 10 -6 1 9 5 17 11 17 5 0 7 -6 4 -14 -3 -7 2 -16 11 -20 11
-4 14 -2 10 7 -4 6 -1 5 7 -4 7 -9 19 -14 26 -12 6 3 12 -3 12 -14 0 -15 2
-16 10 -3 8 12 10 10 10 -9 0 -18 4 -22 20 -18 14 4 20 0 20 -11 0 -12 3 -13
8 -5 6 9 12 7 22 -7 11 -16 17 -17 29 -7 12 9 13 9 7 0 -5 -9 -1 -13 13 -13
10 0 21 -5 23 -12 2 -6 15 -12 29 -14 13 -1 27 -3 31 -3 4 -1 5 -9 2 -19 -5
-14 -3 -14 10 2 14 17 16 18 16 3 0 -10 8 -17 20 -17 11 0 23 -7 27 -16 5 -13
7 -13 14 -2 6 10 9 8 9 -7 0 -17 2 -17 10 -5 8 12 10 12 11 -5 0 -12 3 -15 6
-7 4 10 8 9 19 -5 12 -16 15 -16 24 -3 8 12 10 11 10 -6 0 -13 8 -24 20 -27
11 -3 18 -1 14 4 -3 5 2 6 10 3 9 -3 14 -10 11 -14 -3 -4 2 -11 11 -14 10 -4
13 -2 9 7 -4 6 3 1 14 -12 13 -14 27 -21 36 -17 9 3 13 2 10 -4 -5 -9 16 -15
38 -11 5 1 5 -4 1 -10 -5 -9 -2 -10 9 -6 12 4 17 1 18 -11 0 -11 2 -12 6 -4 3
9 11 6 24 -10 14 -15 30 -22 54 -21 28 0 33 -3 30 -19 -4 -17 -2 -18 12 -6 12
9 15 9 9 1 -5 -9 0 -13 14 -13 13 0 19 -4 14 -11 -4 -8 0 -9 15 -4 16 5 21 2
22 -12 0 -10 3 -13 6 -6 3 10 7 10 18 0 7 -7 12 -14 10 -17 -2 -3 13 -5 32 -6
19 0 39 -7 44 -15 8 -13 14 -5 9 16 -1 5 2 6 7 2 4 -5 8 -13 8 -18 0 -5 4 -9
8 -8 5 0 17 -9 27 -21 10 -11 31 -22 48 -23 17 -1 29 -4 27 -7 -2 -3 0 -12 6
-20 7 -13 9 -13 9 -1 0 11 4 9 15 -5 8 -10 15 -15 15 -11 0 4 10 3 21 -4 16
-8 20 -8 14 1 -5 8 -1 8 13 -1 12 -7 18 -18 14 -24 -3 -5 1 -4 10 3 12 10 18
9 28 -3 7 -8 16 -12 21 -9 5 3 9 0 9 -7 0 -7 3 -9 7 -6 3 4 12 -1 20 -11 9
-11 12 -11 7 -2 -6 12 -4 13 7 2 7 -6 23 -12 36 -12 13 0 23 -5 23 -11 0 -5 5
-7 11 -4 5 4 20 -1 31 -12 14 -12 19 -13 13 -3 -6 11 -3 10 12 -3 21 -19 38
-23 28 -7 -9 14 1 13 17 -2 21 -20 61 -41 53 -29 -3 6 -1 11 4 11 6 0 11 -4
11 -9 0 -5 9 -11 20 -14 11 -3 18 -1 14 4 -3 5 2 6 10 3 9 -3 13 -11 10 -16
-5 -7 0 -7 12 0 15 8 26 5 54 -16 19 -14 29 -18 21 -9 -12 15 -12 17 3 11 9
-3 16 -11 16 -18 0 -6 5 -4 10 4 7 11 10 11 10 2 0 -8 5 -10 13 -6 7 5 6 0 -3
-11 -8 -10 -10 -16 -3 -12 6 4 14 1 16 -5 4 -10 6 -10 6 0 1 6 6 12 12 12 5 0
7 -6 3 -12 -6 -10 -4 -10 7 0 7 6 18 12 23 12 6 0 6 -4 -1 -8 -9 -6 -6 -11 8
-21 12 -7 18 -8 15 -3 -11 19 24 6 39 -14 15 -19 15 -19 8 1 -5 17 -2 15 21
-7 23 -23 32 -26 48 -17 12 7 18 7 14 1 -3 -5 1 -15 9 -22 13 -11 15 -10 9 6
-5 18 -5 18 11 -1 17 -21 45 -26 57 -10 5 6 8 3 8 -7 0 -12 5 -15 17 -11 10 4
14 2 9 -5 -4 -7 2 -8 24 -2 17 5 28 5 25 0 -3 -4 2 -10 10 -14 8 -3 15 -1 15
4 0 6 5 10 11 10 5 0 8 -4 5 -9 -3 -5 3 -11 13 -14 15 -3 18 -1 15 12 -3 9 1
5 9 -8 11 -18 16 -20 20 -10 4 9 6 7 6 -6 1 -17 3 -18 11 -5 9 13 12 13 24 -3
11 -14 15 -15 19 -5 4 10 6 10 6 1 1 -7 10 -13 21 -13 11 0 20 -4 20 -10 0 -5
3 -9 8 -9 20 3 32 -2 26 -12 -3 -6 6 -3 22 7 28 18 29 18 14 0 -14 -18 -13
-19 8 -14 12 4 22 2 22 -3 0 -6 9 -5 21 2 13 7 19 7 15 1 -3 -6 -2 -13 4 -17
5 -3 10 0 10 7 0 9 2 10 8 2 4 -7 20 -12 36 -12 15 0 32 -6 37 -13 7 -12 9
-11 9 1 0 12 2 12 9 2 4 -7 12 -12 17 -11 21 4 35 -2 28 -12 -4 -8 -1 -8 12
-1 22 11 41 6 68 -17 19 -17 22 -17 45 2 12 9 13 9 7 0 -4 -8 -2 -13 6 -14 7
0 21 -2 31 -4 11 -2 15 1 10 8 -3 7 4 3 16 -7 15 -14 20 -15 16 -5 -4 10 1 15
14 15 15 0 17 -3 9 -13 -8 -10 -5 -13 13 -12 34 1 55 -5 75 -21 10 -8 15 -10
12 -5 -4 6 3 17 15 25 21 12 21 12 7 -5 -14 -17 -13 -17 9 -10 15 5 21 4 17
-3 -3 -6 -1 -14 5 -18 8 -4 9 -3 5 4 -5 8 3 12 26 12 24 0 29 -3 18 -10 -12
-7 -10 -9 8 -7 15 1 21 6 17 16 -4 11 -3 11 9 2 8 -7 21 -9 27 -5 7 4 9 3 6
-3 -4 -6 2 -13 13 -16 11 -3 23 0 27 5 4 7 1 8 -7 3 -9 -5 -11 -4 -6 4 4 6 13
8 19 4 7 -4 21 -7 33 -8 11 0 29 -7 39 -15 11 -9 16 -10 11 -2 -11 18 5 14 20
-5 13 -17 13 -17 14 2 1 19 1 19 11 2 10 -17 12 -17 23 -1 12 16 14 15 29 -7
14 -19 17 -20 17 -6 0 15 3 15 20 5 17 -11 22 -10 29 1 6 8 10 9 12 2 2 -6 19
-13 38 -15 18 -2 38 -10 43 -17 8 -11 9 -10 4 3 -6 21 -2 22 26 7 13 -7 18 -7
14 0 -7 11 46 8 78 -5 14 -5 17 -4 12 4 -5 8 -2 10 8 6 9 -3 16 -11 16 -17 0
-6 7 -2 15 9 13 16 14 16 9 1 -5 -15 -3 -16 19 -8 17 7 28 6 36 -2 8 -8 14 -8
19 -2 10 14 62 16 62 3 0 -7 5 -6 14 1 9 7 17 8 20 2 7 -10 25 -9 44 2 6 5 12
4 12 -2 0 -10 32 -7 50 4 6 4 17 1 25 -5 8 -7 15 -8 15 -3 0 13 53 8 58 -5 2
-8 11 -3 23 10 11 13 19 19 18 13 -3 -23 2 -36 12 -30 6 4 8 14 5 24 -5 12 -2
11 9 -3 8 -11 15 -15 15 -9 0 15 38 24 47 11 4 -7 1 -8 -8 -3 -12 7 -12 5 -1
-6 9 -10 15 -10 20 -3 4 6 23 11 42 11 19 0 43 4 53 8 14 6 16 3 11 -11 -5
-17 -4 -17 5 -2 7 10 19 14 31 11 16 -4 19 -2 14 13 -5 15 -4 16 4 5 10 -14
55 -24 47 -10 -3 4 2 10 11 13 8 3 12 2 9 -3 -3 -5 -1 -12 5 -16 6 -3 10 4 10
17 1 20 2 21 11 6 5 -10 15 -18 20 -18 6 0 7 5 3 11 -4 8 0 8 15 0 18 -10 21
-9 22 6 1 12 3 10 9 -7 5 -14 8 -18 9 -9 1 9 8 22 17 29 8 8 14 9 13 4 -4 -25
3 -26 17 -4 11 18 14 19 9 5 -5 -15 -3 -17 6 -8 6 6 18 9 27 6 9 -4 13 -2 9 4
-8 13 11 12 32 -1 10 -7 12 -6 6 4 -6 10 -1 12 19 8 14 -3 26 -1 26 3 0 5 5 9
11 9 5 0 7 -4 4 -10 -3 -5 -1 -10 4 -10 6 0 11 6 11 13 0 14 53 17 66 5 9 -10
35 3 28 13 -10 17 5 9 26 -14 13 -13 19 -16 15 -6 -3 9 1 22 10 29 9 7 15 9
13 3 -2 -6 0 -11 5 -12 21 -3 28 0 22 9 -3 6 -1 10 4 10 6 0 11 -6 11 -12 0
-9 4 -8 10 2 9 13 10 13 10 0 1 -12 3 -11 11 3 5 9 15 17 22 17 7 0 6 -4 -3
-10 -9 -6 -10 -10 -3 -10 21 0 43 12 37 21 -3 5 7 4 21 -1 15 -6 24 -6 20 -1
-3 5 -1 12 4 15 5 4 12 -2 14 -11 4 -15 5 -15 6 -2 0 9 10 19 21 22 11 3 18 2
16 -2 -3 -4 5 -8 17 -8 17 -2 19 0 7 7 -12 8 -11 10 7 10 12 0 25 5 29 11 3 6
15 9 25 6 11 -3 19 -1 19 4 0 4 7 6 15 3 8 -4 12 -11 8 -17 -3 -6 -1 -7 6 -3
6 4 9 11 6 16 -8 13 22 19 35 7 10 -9 11 -9 5 1 -5 10 -1 13 16 12 40 -4 51
-1 43 12 -4 6 -3 8 4 4 6 -3 13 -2 17 4 4 6 11 8 16 4 5 -3 17 0 26 8 14 11
16 11 8 -1 -6 -10 -4 -12 4 -7 7 5 10 14 7 21 -3 9 2 11 16 7 15 -4 17 -7 6
-13 -10 -7 -10 -9 0 -9 7 0 15 7 18 15 4 8 9 13 13 10 4 -2 18 2 32 8 13 7 45
12 71 12 26 0 46 2 46 5 -2 21 5 28 23 25 18 -4 19 -2 7 12 -9 12 -9 15 -1 9
23 -13 54 -16 47 -4 -5 7 -2 9 9 5 8 -3 21 1 27 8 9 11 17 12 32 4 13 -7 18
-7 14 -1 -3 6 -2 13 4 17 5 3 10 1 10 -6 0 -8 4 -9 13 0 10 8 17 7 26 -2 10
-9 11 -8 5 6 -5 13 -2 16 12 10 13 -5 15 -3 9 8 -6 11 -5 12 6 1 16 -15 33
-16 23 0 -5 7 0 9 14 6 13 -4 23 0 26 8 3 8 11 14 17 14 8 0 7 -6 -2 -18 -13
-16 -13 -16 6 -2 11 8 26 22 33 30 12 13 13 13 8 -2 -5 -15 -3 -16 14 -5 11 6
20 15 20 20 0 4 -5 5 -12 1 -7 -4 -8 -3 -4 5 6 9 11 9 21 1 16 -14 38 -4 29
12 -4 7 -2 8 5 4 6 -4 9 -11 7 -15 -3 -4 1 -8 9 -8 8 0 12 4 9 9 -3 4 0 8 6 8
6 0 8 5 4 12 -4 6 -3 8 4 4 6 -3 16 2 22 11 11 17 11 17 6 0 -4 -12 -2 -17 6
-14 7 2 12 10 10 16 -2 9 3 9 19 0 15 -8 19 -8 15 0 -4 6 0 11 8 11 9 0 16 6
16 13 0 7 3 8 8 2 10 -15 32 -17 29 -3 -1 7 5 13 13 13 25 2 70 24 70 35 0 5
5 10 11 10 5 0 7 -5 4 -11 -4 -6 2 -5 14 3 12 7 21 16 21 21 0 4 5 5 10 2 6
-4 17 -1 25 5 8 7 15 9 15 6 0 -4 7 0 16 9 9 9 23 14 31 11 7 -3 16 0 18 7 3
6 16 13 30 13 15 1 22 -2 18 -9 -3 -6 -1 -7 5 -3 7 4 12 15 12 24 0 14 2 15
10 2 7 -12 10 -11 16 5 7 18 8 18 15 -1 7 -18 8 -18 8 1 1 17 3 17 11 5 8 -12
10 -12 10 5 0 17 2 17 10 5 6 -10 10 -11 10 -2 0 6 5 12 11 12 5 0 7 -5 3 -12
-4 -7 -3 -8 4 -4 7 4 12 14 12 22 0 8 5 14 11 14 5 0 8 -4 5 -8 -3 -5 1 -9 9
-9 8 0 13 3 10 5 -6 6 26 31 40 32 6 0 3 -5 -5 -10 -11 -7 -11 -10 -2 -10 7 0
17 10 22 22 5 14 9 17 10 8 0 -12 3 -11 11 3 8 14 14 15 24 7 11 -9 17 -7 27
9 16 26 30 28 21 4 -3 -12 0 -10 11 5 10 12 21 20 26 17 4 -3 10 1 13 9 5 12
69 32 89 28 4 -1 5 5 2 13 -4 10 0 15 11 15 10 0 13 -5 9 -12 -4 -7 -3 -8 4
-4 7 4 12 14 12 21 0 9 6 12 15 9 8 -4 15 -1 15 4 0 6 9 9 20 7 12 -2 23 2 26
10 3 7 14 12 25 10 11 -2 17 0 14 6 -4 5 3 9 15 9 12 0 18 5 15 10 -3 6 -1 10
4 10 6 0 11 -6 12 -12 0 -7 4 -3 9 10 6 13 18 22 30 22 14 0 19 4 14 13 -5 9
-4 9 6 0 11 -10 16 -9 27 5 8 9 12 11 8 5 -4 -9 -1 -11 9 -7 9 3 14 10 11 14
-3 4 2 11 11 14 8 3 13 2 10 -2 -2 -4 4 -8 14 -8 11 0 16 5 12 15 -4 10 0 13
16 9 16 -5 20 -2 17 14 -4 17 -2 18 11 7 12 -10 15 -10 12 1 -2 7 3 15 11 18
9 3 11 0 6 -8 -5 -9 -4 -11 3 -6 7 4 12 15 12 24 0 12 3 13 8 5 6 -9 13 -7 26
8 14 17 20 18 32 8 12 -10 13 -9 9 4 -4 8 -2 18 4 22 6 3 11 2 11 -4 0 -7 8
-7 25 1 14 6 25 15 25 21 0 5 7 6 16 3 10 -4 13 -2 8 6 -5 8 -2 9 10 5 10 -4
15 -3 11 3 -3 6 -1 10 5 10 6 0 8 4 5 10 -3 5 -1 10 4 10 6 0 11 -6 12 -12 0
-7 5 -3 11 9 6 13 15 23 20 23 5 0 6 -5 2 -12 -4 -7 -3 -8 4 -4 7 4 12 13 12
21 0 8 7 11 19 8 11 -3 21 2 24 11 4 9 12 16 19 16 9 0 8 -3 -2 -10 -11 -7
-11 -10 -2 -10 7 0 17 10 22 22 5 13 9 18 9 12 1 -6 8 -11 16 -11 12 0 12 3 2
16 -9 12 -9 13 1 7 7 -4 12 -2 12 6 0 10 3 9 10 -2 7 -12 12 -12 29 4 11 10
18 24 14 30 -4 6 1 5 10 -3 16 -12 17 -12 11 5 -4 10 -4 16 1 12 4 -4 14 -3
22 4 11 9 12 7 8 -8 -5 -13 -2 -12 7 4 8 12 17 19 21 16 4 -4 7 -2 7 4 0 6 9
9 19 7 14 -2 18 1 15 10 -4 10 0 13 15 10 14 -3 19 0 15 7 -5 7 -2 9 9 5 12
-4 14 -2 10 10 -4 11 -2 14 5 9 6 -4 22 4 34 16 23 23 26 25 54 27 10 1 14 7
10 16 -5 13 -2 14 15 4 16 -8 20 -8 14 1 -4 6 1 20 10 30 14 15 22 17 37 9 15
-8 19 -8 13 0 -8 13 12 41 28 41 6 0 2 -7 -9 -16 -18 -14 -18 -15 4 -4 12 6
22 15 22 21 0 6 5 7 10 4 6 -3 10 0 10 7 0 9 3 9 10 -2 8 -13 10 -12 10 4 0
13 5 17 20 13 11 -3 23 0 27 5 4 7 1 8 -8 4 -8 -4 -6 -1 4 8 11 8 24 13 30 12
7 -2 9 -1 5 1 -15 9 -8 25 8 19 20 -8 46 12 37 28 -4 6 1 5 11 -3 9 -8 16 -10
14 -5 -2 5 0 9 4 9 4 0 14 9 22 20 11 14 15 16 16 6 0 -17 15 -5 15 12 0 7 9
11 18 10 13 -1 17 4 13 14 -5 11 -1 14 13 10 15 -4 18 -1 14 12 -4 9 -3 13 2
9 4 -4 14 0 22 10 8 9 12 12 9 5 -4 -6 -1 -15 6 -19 7 -4 10 -4 7 0 -9 10 33
53 47 49 6 -2 18 7 28 21 11 17 21 23 33 19 11 -4 14 -3 9 5 -4 7 -1 12 9 12
11 0 15 5 11 16 -3 8 -2 13 3 9 14 -8 42 6 34 18 -4 6 0 8 10 4 11 -4 23 4 37
26 19 29 21 30 16 7 -3 -14 -3 -19 0 -12 3 6 11 9 17 5 7 -3 9 -3 5 2 -14 15
11 43 37 40 19 -2 23 1 15 11 -9 10 -5 12 16 9 27 -3 27 -2 9 12 -16 13 -17
15 -3 10 10 -3 20 -2 23 4 4 5 11 6 17 3 7 -4 8 -2 4 4 -4 8 0 12 11 12 15 0
16 2 3 11 -12 9 -11 10 8 6 12 -3 20 -1 16 4 -5 9 10 13 30 10 5 -1 3 5 -4 14
-11 13 -10 15 2 10 9 -4 18 0 21 9 4 10 13 13 23 9 13 -5 15 -3 9 7 -6 10 -4
12 11 6 10 -4 15 -4 12 0 -9 9 15 33 26 26 5 -3 6 3 2 14 -4 10 -4 15 0 12 3
-4 19 -1 35 8 32 16 39 27 12 17 -15 -5 -14 -3 2 10 11 8 23 13 27 10 5 -2 12
6 17 19 6 14 10 17 11 8 1 -9 5 -5 11 9 6 14 15 21 24 18 10 -4 12 -1 8 10 -4
11 -2 14 5 9 8 -4 12 0 13 11 0 10 3 13 6 6 2 -7 9 -13 14 -13 4 0 5 7 2 17
-4 11 -3 14 5 9 7 -4 12 -1 12 8 0 9 6 13 13 10 12 -4 46 24 40 33 -9 11 -1
13 12 3 13 -11 14 -10 9 4 -5 13 -2 15 12 9 17 -6 17 -5 5 10 -12 15 -12 17 1
12 9 -4 18 1 22 10 3 9 10 13 16 10 5 -3 10 -1 10 5 0 6 4 8 10 5 6 -4 7 1 3
11 -5 13 -3 15 7 9 10 -6 12 -4 6 10 -5 15 -4 16 8 6 11 -9 16 -9 22 0 5 8 3
9 -6 4 -9 -5 -11 -4 -6 3 4 7 16 12 27 12 11 0 17 5 14 10 -3 6 1 10 10 10 8
0 18 7 21 15 5 12 9 13 20 4 12 -10 13 -9 8 5 -4 11 -1 16 12 16 15 0 16 2 6
9 -10 6 -7 10 12 15 15 4 24 11 21 16 -3 5 4 12 16 15 12 4 18 13 15 20 -3 9
2 12 15 10 17 -4 19 -2 8 11 -10 12 -9 13 5 8 9 -3 16 -1 16 6 0 6 4 8 10 5 6
-3 7 1 4 10 -4 10 -2 15 7 13 8 -2 13 3 12 10 -2 6 4 12 12 12 9 0 20 10 25
22 5 13 9 17 9 11 1 -7 5 -13 11 -13 5 0 6 7 3 17 -5 12 -3 14 7 8 10 -6 12
-4 7 8 -3 9 -1 19 5 23 6 4 8 3 4 -4 -3 -6 -2 -13 3 -16 5 -4 12 3 16 14 3 11
12 19 18 17 7 -1 11 3 10 10 -2 8 4 10 14 6 10 -4 14 -2 10 4 -4 6 3 13 16 17
19 5 20 8 7 17 -13 9 -12 10 3 5 9 -3 24 -3 33 1 13 5 13 7 2 14 -11 7 -11 9
0 9 7 0 20 7 29 16 9 8 21 13 28 10 9 -3 11 2 7 17 -5 20 -4 21 13 7 13 -10
16 -11 11 -2 -5 9 9 29 43 62 38 36 49 53 44 67 -6 16 -5 17 12 3 10 -8 16
-10 12 -3 -5 7 1 17 13 23 12 6 19 18 16 25 -3 9 0 12 10 8 11 -4 15 0 12 13
-2 13 3 19 14 18 10 -1 16 1 15 5 -3 9 46 57 55 54 5 -2 8 5 8 15 0 14 2 15
10 2 8 -13 10 -13 10 2 0 9 5 20 12 24 7 5 9 2 4 -7 -4 -8 -1 -5 8 5 8 10 12
24 9 30 -4 6 1 5 10 -3 12 -9 17 -10 17 -2 0 7 5 9 13 5 7 -5 6 0 -3 11 -9 11
-10 16 -2 11 7 -4 12 -2 12 4 0 6 5 8 12 4 8 -5 9 -2 4 12 -4 10 -4 15 0 12
10 -11 36 20 28 34 -5 10 -4 10 6 1 17 -15 63 36 49 54 -7 7 -6 14 2 19 8 5 9
3 4 -6 -5 -8 -3 -11 6 -8 8 3 13 11 12 17 -2 6 4 11 13 11 10 0 14 6 10 15 -3
9 0 15 10 15 11 0 14 6 10 16 -3 8 -2 12 4 9 9 -6 14 7 11 27 0 4 5 5 13 2 8
-3 16 4 19 16 4 15 10 19 19 14 10 -6 10 -4 -1 9 -12 15 -12 17 4 10 14 -5 17
-3 12 10 -3 9 -3 16 1 16 26 -4 34 2 22 16 -10 12 -8 14 8 10 15 -3 19 1 15
16 -4 15 -2 18 11 13 9 -4 16 -3 15 2 -4 21 2 35 11 29 9 -6 14 8 11 27 0 5 5
7 12 5 6 -1 11 4 10 10 -2 7 1 13 6 13 5 0 20 17 32 38 13 20 28 40 33 44 6 4
11 11 12 15 2 20 17 42 25 37 5 -3 9 1 9 9 0 8 7 17 15 21 8 3 14 9 13 13 -2
4 9 20 22 34 14 14 34 38 45 51 11 14 24 23 29 20 5 -3 7 2 3 11 -4 12 -1 17
10 17 9 0 14 2 11 5 -3 3 3 16 13 28 39 45 122 163 140 199 10 20 41 59 69 87
27 28 50 55 50 61 0 5 5 10 10 10 6 0 10 7 10 15 0 8 11 25 24 38 14 14 22 28
19 31 -4 3 -1 6 6 6 8 0 11 6 7 16 -3 8 -2 12 4 9 6 -3 13 1 16 9 3 9 11 13
17 9 6 -4 8 2 5 15 -4 15 -2 19 9 15 7 -3 13 -2 12 3 -4 17 13 44 24 37 6 -4
8 0 4 10 -4 11 -1 17 8 17 8 0 15 5 15 10 0 6 5 16 10 23 6 7 20 23 31 37 11
14 31 37 45 53 13 15 21 27 17 27 -5 0 -1 6 7 13 26 22 66 71 50 62 -13 -8
-13 -6 -1 8 7 9 17 15 21 12 5 -3 13 9 19 26 6 18 18 37 26 43 9 6 17 22 18
35 1 12 16 36 34 52 18 15 33 33 33 39 0 6 6 13 14 16 9 3 12 12 9 21 -5 12
-3 14 7 8 10 -6 12 -4 7 9 -4 11 -3 15 4 11 6 -4 13 2 16 14 3 12 10 21 15 21
5 0 7 4 3 9 -3 5 2 16 10 24 8 9 15 20 15 25 0 6 12 34 27 64 15 29 28 59 29
67 2 8 7 17 12 20 5 3 8 14 6 24 -1 9 1 15 5 12 7 -4 52 83 53 102 0 4 9 20
19 35 23 32 82 147 85 167 2 8 9 18 16 22 7 5 9 9 4 9 -5 0 -3 7 4 15 6 8 8
20 4 26 -5 8 -3 9 6 4 10 -6 12 -4 7 8 -3 9 0 18 9 21 8 3 14 10 14 16 0 6 -6
8 -12 5 -7 -4 -5 0 5 8 9 8 17 22 17 31 0 9 5 16 12 16 6 0 8 3 5 7 -4 3 1 12
11 20 10 9 11 11 2 7 -13 -7 -13 -6 0 12 8 10 20 22 25 26 6 5 4 8 -4 8 -9 0
-7 6 8 19 16 14 18 21 9 24 -8 3 -6 6 5 6 11 1 15 6 11 12 -3 6 -2 14 3 18 9
6 46 88 81 181 12 30 33 85 47 122 14 37 24 71 23 75 -1 4 5 28 12 53 18 61
22 80 24 113 0 15 5 27 10 27 5 0 2 8 -5 17 -8 10 -9 14 -2 10 8 -5 11 1 9 20
-1 16 1 36 6 46 6 12 5 23 -2 32 -8 10 -7 16 7 24 14 8 15 10 3 11 -13 0 -13
1 0 10 13 8 13 10 1 10 -11 0 -10 4 5 16 10 8 14 13 8 10 -7 -3 -14 3 -17 13
-3 13 0 18 8 15 9 -4 12 8 11 40 -1 35 2 46 14 47 10 0 9 3 -5 9 -11 5 -14 9
-7 9 7 1 11 5 7 10 -3 5 -1 12 5 16 5 3 10 12 10 18 0 7 -4 6 -10 -3 -6 -9
-10 -10 -10 -3 0 6 5 15 11 19 6 3 9 14 6 24 -2 10 -1 23 3 30 4 7 4 26 0 41
-5 17 -5 31 1 35 5 3 7 10 4 15 -4 5 0 9 7 9 9 0 9 3 -2 10 -8 5 -10 10 -3 10
13 0 12 18 -1 39 -7 10 -6 12 4 6 10 -6 12 -4 7 8 -3 10 -3 17 1 17 10 0 8 93
-3 109 -5 9 -4 12 2 8 6 -4 14 0 17 9 9 22 8 26 -5 18 -8 -4 -8 -1 -1 12 5 11
9 36 8 56 -2 27 2 38 11 38 9 0 11 5 7 12 -10 17 -13 48 -4 48 4 0 6 14 5 30
-1 17 2 30 7 30 6 0 6 6 -1 14 -10 11 -8 15 6 19 17 4 17 5 1 6 -19 1 -24 16
-9 26 6 3 8 14 6 25 -2 11 2 20 8 20 9 0 9 2 0 8 -14 9 -12 44 2 54 6 5 5 8
-2 8 -7 0 -13 5 -13 11 0 5 6 7 13 3 7 -5 7 -1 -2 10 -13 15 -13 19 0 27 11 7
10 9 -6 9 -15 0 -17 2 -6 9 11 7 11 9 0 14 -12 5 -12 6 0 6 10 1 10 7 -4 27
-9 15 -13 24 -7 20 16 -10 21 44 5 60 -11 11 -12 14 -1 14 10 0 10 2 -1 9 -9
6 -10 10 -2 16 9 5 9 10 0 21 -6 8 -8 14 -4 14 4 0 2 7 -5 15 -10 12 -9 15 6
15 17 1 17 2 2 10 -10 6 -15 20 -14 35 2 13 0 23 -3 21 -3 -2 -11 2 -18 9 -9
10 -9 15 -1 17 8 3 6 12 -4 29 -8 13 -14 34 -13 46 1 13 -2 23 -7 23 -5 0 -6
6 -2 12 10 16 13 48 4 48 -5 0 -10 38 -13 98 0 6 -7 12 -16 12 -9 0 -12 3 -6
8 11 8 14 73 4 66 -4 -2 -10 3 -13 12 -5 12 -2 15 11 10 15 -6 14 -4 -2 14
-10 11 -19 34 -19 50 -1 15 -4 32 -8 36 -4 4 -3 13 3 21 9 9 8 13 0 13 -6 0
-11 7 -11 15 0 8 -6 15 -12 15 -9 0 -8 4 2 10 10 6 11 10 3 10 -7 0 -13 7 -13
16 0 8 -4 13 -8 10 -5 -3 -9 1 -9 9 0 8 4 12 9 9 4 -3 8 0 8 5 0 6 -4 11 -10
11 -5 0 -10 11 -10 25 0 14 -5 25 -10 25 -6 0 -9 3 -9 8 4 25 -2 42 -13 36 -7
-4 -10 -4 -6 1 4 4 3 17 -3 28 -7 13 -7 17 -1 13 6 -3 13 -2 17 4 3 6 0 13 -9
16 -8 3 -13 14 -11 25 2 10 0 19 -6 19 -5 0 -8 3 -8 8 5 29 -3 72 -11 67 -6
-4 -10 -3 -9 2 4 26 -2 53 -12 47 -6 -4 -9 1 -7 13 2 11 -3 27 -9 35 -7 8 -14
27 -15 42 -1 14 -6 26 -11 26 -4 0 -6 4 -3 9 3 4 -1 17 -8 27 -10 13 -11 23
-4 31 7 9 7 13 -2 13 -7 0 -10 7 -6 16 4 9 2 13 -5 8 -8 -4 -9 1 -4 15 3 11 3
21 -2 21 -5 0 -10 12 -11 26 -1 15 -7 33 -13 40 -6 7 -8 18 -4 24 3 5 1 10 -5
10 -6 0 -9 4 -6 9 3 5 -3 20 -14 34 -13 16 -16 28 -10 32 6 4 5 12 -5 21 -8 9
-16 22 -16 30 -1 14 -4 27 -9 42 -1 4 -2 11 -1 16 1 5 -5 6 -13 3 -10 -4 -13
-1 -9 8 3 8 10 12 17 8 6 -3 0 6 -14 22 -14 16 -19 25 -12 21 6 -4 12 -2 12 3
0 6 -8 11 -17 11 -15 0 -16 2 -3 10 10 6 11 10 3 10 -7 0 -13 5 -13 11 0 5 6
7 13 4 6 -4 1 3 -13 15 -14 12 -20 19 -13 16 6 -4 14 -2 18 4 3 5 -1 10 -10
10 -9 0 -13 5 -10 10 3 6 1 10 -6 10 -7 0 -9 3 -6 6 10 11 -13 45 -25 38 -7
-4 -8 -3 -4 5 9 14 -14 81 -29 81 -5 0 -3 5 5 10 10 6 11 10 3 10 -7 0 -13 7
-13 15 0 8 -4 15 -10 15 -5 0 -10 5 -10 11 0 5 4 8 8 5 5 -3 9 1 9 9 0 8 -8
12 -20 9 -16 -3 -18 -1 -9 8 16 16 15 31 0 22 -8 -5 -7 0 2 11 9 11 10 16 3
11 -12 -6 -18 5 -14 27 0 4 -4 7 -10 7 -5 0 -7 5 -4 10 3 6 -2 10 -12 11 -12
0 -13 2 -5 6 10 4 8 9 -7 20 -12 8 -21 19 -21 25 0 7 7 3 16 -8 11 -13 10 -10
-2 14 -10 17 -22 32 -26 32 -4 0 -5 7 -2 15 4 10 0 15 -12 15 -14 0 -16 2 -6
9 11 6 10 10 -5 16 -17 7 -17 8 2 15 19 8 19 9 -3 9 -19 1 -21 4 -13 20 8 14
5 22 -17 40 -17 13 -21 21 -12 22 10 0 8 4 -5 9 -13 6 -15 9 -5 9 12 1 12 3 2
9 -7 5 -14 19 -17 31 -5 24 -53 104 -82 135 -10 11 -12 16 -5 12 10 -6 10 -2
0 18 -6 14 -14 26 -18 26 -4 0 -7 7 -8 15 -1 8 -3 22 -4 30 -1 8 -5 12 -10 9
-4 -3 -8 4 -8 16 0 12 -4 18 -10 15 -13 -8 -8 18 5 27 6 4 1 8 -9 8 -11 0 -16
3 -13 7 4 3 -2 13 -14 21 -15 10 -17 17 -9 27 8 10 7 16 -7 24 -10 6 -13 11
-8 11 7 0 7 3 0 8 -18 13 -49 76 -34 68 10 -5 10 -4 -1 6 -8 7 -16 20 -18 28
-2 8 -8 16 -13 18 -5 2 -9 10 -9 18 0 10 -5 12 -12 8 -10 -6 -10 -4 0 8 10 13
10 17 -4 22 -9 3 -14 13 -11 20 3 8 -1 17 -9 20 -9 3 -12 10 -9 16 3 5 1 10
-4 10 -6 0 -11 7 -11 16 0 9 -14 30 -31 46 -28 27 -29 29 -7 23 l23 -7 -25 22
c-14 12 -24 26 -22 31 1 5 -5 9 -15 9 -9 0 -14 3 -10 6 3 4 -1 13 -9 21 -8 9
-12 23 -9 31 3 9 3 13 -1 10 -9 -10 -34 17 -34 37 0 10 -5 13 -12 9 -8 -5 -7
0 2 11 9 11 10 16 3 11 -8 -4 -13 -2 -13 4 0 6 -4 8 -10 5 -7 -4 -7 3 0 22 10
27 9 27 -6 8 -16 -20 -16 -20 -9 3 3 12 3 22 -2 22 -4 0 -14 9 -21 21 -8 12
-9 18 -3 14 6 -3 11 -1 11 4 0 6 -4 11 -8 11 -4 0 -14 16 -21 35 -7 19 -17 35
-22 35 -5 0 -9 5 -9 11 0 5 5 7 12 3 7 -4 8 -3 4 5 -6 9 -11 9 -21 1 -9 -8
-12 -4 -9 16 2 20 -1 24 -13 20 -13 -5 -14 -4 -3 9 12 14 7 19 -13 16 -5 -1
-7 4 -5 11 3 7 -2 19 -11 26 -13 11 -13 12 -1 7 10 -4 9 -2 -2 8 -10 8 -15 17
-11 20 3 4 -2 7 -13 7 -16 0 -17 2 -4 10 13 8 13 10 -2 10 -11 0 -15 5 -12 15
4 9 -1 18 -12 22 -16 6 -16 7 2 14 17 7 17 8 -4 8 -13 1 -20 5 -17 11 3 6 -2
10 -11 10 -16 0 -16 1 2 14 10 8 16 18 11 22 -4 4 -7 2 -7 -4 0 -7 -5 -12 -11
-12 -5 0 -8 4 -4 9 3 5 1 12 -5 16 -6 4 -8 11 -5 16 6 8 -9 13 -28 10 -5 -1
-6 3 -2 9 3 6 11 8 16 5 5 -3 6 1 3 9 -3 9 -10 14 -14 11 -5 -3 -14 8 -21 24
-7 16 -18 27 -24 23 -5 -3 -3 3 5 13 9 11 10 16 3 11 -8 -4 -13 -1 -13 8 0 9
-5 16 -11 16 -5 0 -7 5 -4 10 3 6 -1 10 -9 10 -14 0 -18 6 -15 26 0 3 -10 14
-22 25 -12 10 -19 19 -15 19 4 0 0 7 -8 16 -9 8 -14 20 -11 25 4 5 1 9 -5 9
-6 0 -8 5 -5 10 3 6 -1 10 -10 10 -11 0 -15 5 -11 16 3 8 2 13 -2 10 -4 -2
-14 9 -21 25 -7 16 -17 26 -23 23 -6 -4 -8 -2 -5 4 9 13 -2 44 -13 37 -4 -3
-11 2 -14 11 -3 8 -2 12 4 9 22 -13 8 7 -26 39 -23 22 -34 40 -31 50 4 10 1
13 -8 10 -14 -6 -39 29 -28 40 3 3 -1 6 -11 6 -9 0 -14 5 -11 10 3 6 1 10 -4
10 -6 0 -10 6 -9 13 2 6 -3 11 -11 9 -9 -2 -11 3 -7 14 4 11 0 18 -14 21 -11
3 -20 10 -20 15 0 5 -6 6 -12 2 -8 -5 -7 0 2 11 9 11 10 16 3 11 -7 -4 -13 -4
-13 1 0 8 -31 49 -69 89 -11 12 -17 25 -14 28 4 3 1 6 -6 6 -7 0 -9 5 -5 12 5
8 2 9 -11 4 -15 -5 -16 -4 -5 9 11 13 11 16 -1 13 -8 -2 -13 4 -12 15 0 10 -1
16 -4 13 -8 -8 -53 42 -53 59 0 9 -3 14 -7 12 -5 -3 -15 2 -23 11 -13 14 -12
15 5 8 18 -6 18 -6 2 12 -9 10 -17 24 -17 30 0 6 -9 14 -20 17 -11 3 -20 13
-20 21 0 8 -4 12 -10 9 -5 -3 -10 1 -10 9 0 8 -9 20 -21 26 -12 7 -18 18 -15
26 3 8 1 14 -3 14 -5 0 -11 -4 -13 -10 -1 -5 -8 2 -15 16 -11 23 -10 24 5 12
12 -9 11 -6 -2 10 -11 12 -25 21 -32 18 -9 -3 -11 1 -7 11 5 12 3 14 -8 8 -11
-7 -11 -5 1 10 9 11 10 16 3 11 -7 -4 -13 -3 -13 1 0 5 -12 17 -27 27 -16 9
-21 15 -12 13 9 -3 16 1 16 8 0 8 -7 11 -15 7 -11 -4 -14 -1 -9 12 4 9 3 15
-3 11 -5 -3 -8 3 -7 14 0 10 6 17 13 14 7 -2 15 1 20 8 5 8 3 10 -7 4 -8 -5
-11 -4 -6 1 5 5 13 10 18 10 5 1 13 2 17 3 18 2 51 38 44 47 -4 4 1 2 11 -5
15 -12 17 -12 10 5 -6 17 -5 17 10 5 15 -12 17 -12 11 4 -5 13 -4 16 4 11 7
-4 12 -1 12 8 0 9 5 15 12 13 7 -1 13 4 14 11 1 6 2 15 3 19 0 4 8 -2 16 -13
13 -16 14 -16 9 -1 -4 10 -1 17 6 17 6 0 8 5 5 10 -3 6 1 10 10 10 9 0 13 5
10 11 -4 6 0 9 10 7 10 -2 20 3 23 11 3 9 0 11 -9 6 -8 -5 -11 -4 -6 1 5 5 13
10 18 10 5 1 14 2 20 3 5 0 7 6 3 13 -5 8 -2 9 10 5 13 -5 17 -3 13 7 -3 8 1
20 9 27 12 10 13 9 9 -7 -4 -11 0 -9 8 6 9 14 13 29 9 35 -3 5 2 4 12 -4 15
-12 17 -12 14 0 -2 8 3 13 10 11 8 -1 11 2 7 8 -3 5 2 10 12 10 15 0 16 2 3
10 -13 9 -13 10 0 11 8 1 18 1 23 0 4 -1 12 10 17 25 7 16 14 23 22 18 9 -6 9
-3 0 9 -12 14 -11 16 7 12 13 -2 19 0 15 6 -3 6 3 19 15 30 12 11 21 24 21 29
0 6 5 10 11 10 8 0 7 -6 -2 -17 -9 -11 -10 -14 -2 -9 7 4 18 16 24 28 9 16 8
19 -2 13 -8 -5 -10 -4 -5 3 4 7 15 12 24 12 15 0 15 2 2 10 -10 7 -11 10 -2
11 6 1 17 3 22 4 6 1 13 3 16 4 4 0 0 9 -7 18 -10 12 -11 15 -1 9 17 -10 42
11 42 35 0 11 5 19 12 19 6 0 8 3 5 7 -9 8 13 34 23 28 4 -3 14 3 21 12 8 9 9
14 3 10 -6 -3 -11 0 -11 7 0 8 6 12 14 9 9 -4 11 0 7 11 -4 11 -2 16 7 14 8
-2 13 3 11 11 -2 9 3 11 14 7 15 -6 15 -4 3 11 -9 11 -10 14 -1 9 7 -4 12 -1
12 8 0 9 6 16 13 16 8 0 7 4 -3 10 -13 8 -12 10 5 11 11 1 24 1 29 0 5 -1 4 5
-3 13 -10 12 -8 18 14 32 14 9 24 23 21 30 -3 8 1 14 11 14 13 0 14 2 2 17
-12 15 -12 16 3 11 22 -9 30 2 15 20 -9 13 -9 14 1 8 17 -10 38 4 21 15 -11 7
-10 9 4 9 10 0 16 4 12 9 -3 6 3 14 12 20 10 6 15 11 10 11 -11 0 33 82 54
101 13 11 15 19 7 27 -8 8 -4 10 13 6 13 -2 19 -2 13 1 -16 8 7 57 24 50 9 -3
10 0 2 15 -9 16 -8 20 6 20 14 0 15 2 3 17 -10 11 -10 14 -1 9 7 -4 12 -1 12
8 0 9 5 16 11 16 5 0 7 -5 3 -12 -4 -7 -3 -8 5 -4 8 5 9 12 2 20 -7 8 -4 16
10 24 17 11 19 16 8 30 -8 9 -10 14 -5 10 5 -4 18 4 29 18 17 22 18 27 6 35
-13 8 -5 13 15 10 5 -1 6 7 3 19 -3 14 1 24 15 31 16 9 17 13 6 27 -10 12 -10
14 0 8 7 -4 12 -1 12 8 0 9 4 16 9 16 5 0 8 8 7 18 -2 9 5 23 15 30 14 10 16
18 9 37 -8 20 -6 23 7 18 12 -5 15 -2 10 10 -4 10 -2 14 6 11 9 -3 14 8 15 33
2 21 8 41 15 45 7 4 8 8 2 8 -5 0 -2 5 8 11 14 8 16 14 6 25 -9 11 -8 14 7 15
12 0 14 3 6 6 -10 4 -9 8 5 19 11 8 13 13 6 14 -7 0 -13 4 -13 10 0 5 8 6 18
3 14 -6 15 -4 4 9 -10 13 -10 18 -1 24 8 5 10 3 4 -7 -5 -8 -4 -11 1 -6 9 9
10 13 13 43 0 8 5 13 9 10 5 -3 9 1 9 9 0 8 -5 11 -11 8 -6 -4 -5 0 1 9 7 8
10 18 6 21 -3 4 2 7 13 8 10 0 14 3 7 5 -7 3 -9 12 -6 20 3 7 8 12 13 9 4 -2
5 7 2 20 -4 21 -1 24 14 19 18 -6 18 -6 0 8 -13 11 -16 17 -7 22 6 4 9 12 6
17 -4 5 2 6 12 2 16 -6 16 -5 4 10 -11 14 -11 17 0 17 11 0 11 2 -1 10 -13 8
-12 10 3 10 10 0 15 5 12 10 -4 6 -1 18 7 27 9 12 9 15 1 9 -9 -5 -11 -2 -7 8
3 9 11 13 18 9 6 -4 3 5 -6 19 -11 17 -14 29 -8 33 6 4 9 1 8 -6 -2 -6 2 -13
8 -15 5 -3 11 6 12 18 0 13 2 40 4 60 1 20 5 35 9 32 6 -3 16 32 21 74 1 6 5
12 10 12 5 0 7 8 4 18 -3 9 -1 24 4 31 5 9 5 23 -2 35 -9 17 -8 19 3 9 7 -7
18 -13 23 -13 6 0 4 5 -4 11 -12 8 -12 12 -2 16 11 4 11 7 0 17 -7 6 -11 10
-9 9 2 -2 10 2 17 8 10 8 11 16 4 29 -8 14 -6 20 8 23 15 4 14 5 -2 6 -20 1
-20 1 0 16 16 13 17 16 4 25 -10 6 -11 10 -2 10 6 0 12 5 12 11 0 5 -6 7 -12
4 -7 -4 -4 1 6 9 22 18 31 66 13 66 -7 0 -4 5 6 11 10 6 14 15 10 22 -11 17
-13 38 -3 32 4 -3 11 2 14 11 5 12 2 15 -10 10 -13 -5 -14 -4 -6 7 7 8 8 18 4
22 -4 5 -1 5 5 1 9 -5 12 1 9 23 -2 17 2 32 8 34 8 3 7 12 -2 31 -7 17 -8 25
-1 21 6 -4 9 0 7 11 -2 11 2 18 7 17 7 -1 10 23 9 63 -1 35 2 67 8 70 6 4 5
10 -3 15 -11 7 -9 9 5 9 19 0 19 0 1 13 -12 10 -14 16 -7 21 7 4 12 21 12 37
0 19 4 28 11 24 6 -4 5 3 -3 15 -10 18 -10 24 0 27 19 7 4 23 -16 17 -9 -3 -6
2 8 10 14 8 19 15 11 16 -11 0 -11 3 0 17 12 15 12 16 -1 8 -13 -8 -13 -7 -1
8 11 14 11 17 0 17 -11 0 -11 2 -2 8 7 4 11 18 8 30 -2 13 1 22 8 22 7 0 3 7
-7 15 -20 15 -20 15 0 16 10 0 13 3 7 6 -16 6 -17 33 -2 33 5 0 7 -5 3 -12 -5
-7 -3 -8 5 -4 9 6 9 12 -2 24 -9 11 -12 24 -7 37 4 11 4 28 -1 37 -6 11 -5 19
3 24 7 5 8 3 3 -6 -6 -9 -4 -11 4 -5 10 6 10 11 -2 22 -13 13 -13 20 -1 49 9
21 10 35 4 39 -13 8 -13 52 0 60 6 3 10 12 10 18 0 7 -4 6 -10 -3 -8 -12 -10
-10 -10 8 0 13 4 20 10 17 6 -3 10 -4 10 0 0 3 -10 10 -22 15 -16 6 -18 9 -7
9 9 1 20 8 23 17 3 8 2 13 -3 10 -5 -3 -11 5 -13 19 -3 13 -2 22 2 20 5 -3 11
2 14 11 3 8 2 12 -4 9 -6 -3 -10 -1 -10 5 0 6 -5 8 -12 4 -7 -4 -8 -3 -4 5 4
6 12 9 17 6 5 -4 9 -1 9 4 0 6 -4 11 -8 11 -4 0 -8 9 -8 20 0 11 5 20 10 20 5
0 1 7 -10 15 -19 15 -19 15 1 8 18 -6 18 -5 6 10 -7 9 -10 17 -6 17 4 0 1 8
-6 17 -10 11 -10 14 -1 9 7 -4 12 -1 12 8 0 9 -4 16 -10 16 -5 0 -10 5 -10 11
0 5 4 8 9 5 12 -8 9 27 -3 36 -6 4 -5 12 3 21 9 12 9 17 0 23 -8 5 -9 3 -4 -6
6 -9 4 -11 -4 -5 -9 5 -10 10 -2 18 18 18 12 31 -6 16 -16 -12 -17 -12 -7 1
17 22 15 82 -3 109 -8 13 -10 20 -4 17 15 -10 14 17 -1 33 -10 11 -10 13 0 7
17 -10 15 4 -4 25 -15 16 -14 17 8 13 20 -5 21 -4 5 6 -9 6 -15 15 -12 21 4 5
1 9 -6 9 -7 0 -5 6 6 13 14 11 15 16 5 22 -9 5 -11 4 -6 -3 4 -7 2 -12 -4 -12
-6 0 -9 14 -7 35 2 19 -1 45 -8 59 -8 14 -9 29 -4 39 6 10 5 18 -2 23 -8 5 -9
3 -4 -7 5 -8 4 -11 0 -6 -13 12 -14 48 0 39 6 -4 3 0 -7 10 -13 12 -15 18 -6
21 10 4 10 6 1 6 -7 1 -13 6 -13 12 0 5 5 7 12 3 7 -4 2 7 -11 24 -15 21 -17
30 -8 26 8 -3 18 0 23 7 4 7 3 10 -3 6 -15 -10 -34 16 -23 32 5 9 1 27 -11 49
-11 19 -18 37 -15 40 3 3 1 11 -5 18 -6 8 -9 21 -5 29 3 10 -1 15 -12 15 -12
0 -13 3 -5 8 8 5 9 13 3 22 -14 21 -12 32 3 24 8 -5 8 -3 -2 9 -7 9 -17 15
-21 12 -5 -3 -6 5 -2 17 4 16 2 19 -9 13 -12 -8 -12 -6 0 8 7 10 9 17 3 17 -6
0 -9 12 -7 26 1 15 -3 28 -11 31 -8 3 -14 9 -14 15 0 5 6 6 13 2 8 -5 8 -3 -2
9 -7 9 -16 15 -20 13 -10 -7 -7 49 4 57 5 5 -1 5 -15 2 -19 -6 -22 -4 -14 5 9
8 9 18 0 36 -6 13 -14 24 -18 24 -4 0 -5 7 -2 15 4 8 1 15 -4 15 -12 0 -25 34
-26 65 -1 11 -7 19 -14 17 -8 -1 -11 2 -7 8 3 5 2 10 -4 10 -5 0 -8 11 -7 25
2 13 -2 23 -8 22 -6 -1 -11 11 -10 26 0 19 -4 26 -13 23 -10 -4 -12 2 -9 20 4
22 3 24 -10 13 -13 -10 -14 -8 -10 14 2 15 0 29 -5 33 -5 3 -7 10 -4 15 4 5
-1 9 -10 9 -9 0 -13 5 -10 10 3 6 1 10 -6 10 -7 0 -9 3 -6 6 10 10 -13 45 -24
39 -5 -4 -9 -3 -8 2 3 20 -2 34 -11 28 -6 -4 -7 1 -3 11 4 12 3 15 -5 10 -8
-5 -10 -1 -5 10 4 12 3 15 -5 10 -8 -5 -10 -2 -6 8 3 9 1 16 -6 16 -6 0 -8 4
-5 10 3 6 -1 7 -9 4 -9 -3 -16 -2 -16 4 0 6 6 13 13 15 6 3 2 6 -10 6 -13 1
-22 7 -20 14 3 15 -41 10 -63 -6 -13 -11 -13 -10 -1 6 8 9 11 20 7 24 -3 3 -6
2 -6 -4 0 -6 -9 -13 -20 -16 -13 -3 -20 0 -20 9 0 17 -12 18 -28 2 -9 -9 -12
-9 -12 1 0 9 -10 12 -30 9 -17 -3 -34 0 -37 5 -4 6 -1 7 7 2 9 -5 11 -4 6 4
-6 9 -11 9 -22 0 -11 -9 -14 -8 -14 2 0 12 -2 12 -9 0 -7 -11 -9 -11 -14 0 -4
12 -7 11 -16 -1 -9 -13 -11 -12 -11 3 0 15 -4 16 -20 7 -16 -9 -18 -8 -14 5 5
13 2 14 -20 5 -22 -8 -26 -7 -27 8 0 11 -2 13 -6 4 -4 -10 -10 -9 -26 5 -11
10 -17 12 -13 6 5 -9 0 -13 -13 -13 -10 0 -21 -5 -23 -12 -3 -7 -7 -5 -11 6
-5 11 -3 15 5 10 7 -4 8 -3 4 4 -5 9 -12 8 -27 -1 -16 -10 -21 -9 -29 3 -9 13
-14 7 -11 -12 1 -10 -39 0 -57 14 -14 11 -15 10 -9 -7 7 -18 6 -19 -6 -3 -8
10 -17 15 -21 11 -11 -11 -36 -12 -36 -1 0 7 -5 7 -12 1 -18 -13 -37 -10 -49
7 -8 12 -10 9 -5 -10z m320 -26 c3 -8 2 -12 -4 -9 -6 3 -10 10 -10 16 0 14 7
11 14 -7z m-13109 -3 c3 -5 2 -12 -3 -15 -5 -3 -9 1 -9 9 0 17 3 19 12 6z
m895 -201 c0 -5 -5 -10 -11 -10 -5 0 -7 5 -4 10 3 6 8 10 11 10 2 0 4 -4 4
-10z m-1980 -144 c0 -2 -7 -7 -16 -10 -8 -3 -12 -2 -9 4 6 10 25 14 25 6z
m15025 -726 c3 -6 -1 -7 -9 -4 -18 7 -21 14 -7 14 6 0 13 -4 16 -10z m-4704
-1253 c-10 -9 -11 -8 -5 6 3 10 9 15 12 12 3 -3 0 -11 -7 -18z m-41 -81 c0 -2
-7 -7 -16 -10 -8 -3 -12 -2 -9 4 6 10 25 14 25 6z m-1150 -1292 c0 -8 -19 -13
-24 -6 -3 5 1 9 9 9 8 0 15 -2 15 -3z m5480 -838 c0 -3 -4 -8 -10 -11 -5 -3
-10 -1 -10 4 0 6 5 11 10 11 6 0 10 -2 10 -4z m-14303 -323 c-4 -3 -1 -13 6
-22 11 -14 10 -14 -5 -2 -16 12 -16 31 -1 31 4 0 3 -3 0 -7z m13795 -485 c-7
-7 -12 -8 -12 -2 0 14 12 26 19 19 2 -3 -1 -11 -7 -17z m-13242 -260 c0 -6 -6
-5 -15 2 -8 7 -15 14 -15 16 0 2 7 1 15 -2 8 -4 15 -11 15 -16z m-120 -722 c0
-2 -7 -9 -15 -16 -13 -11 -14 -10 -9 4 5 14 24 23 24 12z m14467 -2472 c-3 -3
-12 -4 -19 -1 -8 3 -5 6 6 6 11 1 17 -2 13 -5z m-1377 -7027 c0 -2 -10 -12
-22 -23 l-23 -19 19 23 c18 21 26 27 26 19z m-13110 -292 c0 -8 -2 -15 -4 -15
-2 0 -6 7 -10 15 -3 8 -1 15 4 15 6 0 10 -7 10 -15z m10960 -1475 c0 -5 -5
-10 -11 -10 -5 0 -7 5 -4 10 3 6 8 10 11 10 2 0 4 -4 4 -10z m-570 -344 c0 -3
-4 -8 -10 -11 -5 -3 -10 -1 -10 4 0 6 5 11 10 11 6 0 10 -2 10 -4z m-7180
-390 c0 -3 -4 -8 -10 -11 -5 -3 -10 -1 -10 4 0 6 5 11 10 11 6 0 10 -2 10 -4z
m4930 -560 c0 -3 -4 -8 -10 -11 -5 -3 -10 -1 -10 4 0 6 5 11 10 11 6 0 10 -2
10 -4z"/>
<path d="M16625 19800 c-3 -6 1 -7 9 -4 18 7 21 14 7 14 -6 0 -13 -4 -16 -10z"/>
<path d="M3896 19791 c-3 -4 6 -7 19 -7 14 0 22 2 19 5 -8 8 -34 10 -38 2z"/>
<path d="M16221 19734 c0 -11 3 -14 6 -6 3 7 2 16 -1 19 -3 4 -6 -2 -5 -13z"/>
<path d="M15650 19559 c0 -5 5 -7 10 -4 6 3 10 8 10 11 0 2 -4 4 -10 4 -5 0
-10 -5 -10 -11z"/>
<path d="M5236 19475 c4 -8 8 -15 10 -15 2 0 4 7 4 15 0 8 -4 15 -10 15 -5 0
-7 -7 -4 -15z"/>
<path d="M6366 18728 c3 -5 10 -6 15 -3 13 9 11 12 -6 12 -8 0 -12 -4 -9 -9z"/>
<path d="M14113 18545 c0 -8 4 -12 9 -9 5 3 6 10 3 15 -9 13 -12 11 -12 -6z"/>
<path d="M14090 18520 c0 -5 5 -10 11 -10 5 0 7 5 4 10 -3 6 -8 10 -11 10 -2
0 -4 -4 -4 -10z"/>
<path d="M13470 17759 c0 -5 5 -7 10 -4 6 3 10 8 10 11 0 2 -4 4 -10 4 -5 0
-10 -5 -10 -11z"/>
<path d="M7805 16500 c3 -5 8 -10 11 -10 2 0 4 5 4 10 0 6 -5 10 -11 10 -5 0
-7 -4 -4 -10z"/>
<path d="M12415 16010 c3 -5 8 -10 11 -10 2 0 4 5 4 10 0 6 -5 10 -11 10 -5 0
-7 -4 -4 -10z"/>
<path d="M3178 15073 c7 -3 16 -2 19 1 4 3 -2 6 -13 5 -11 0 -14 -3 -6 -6z"/>
<path d="M3910 14080 c0 -5 5 -10 11 -10 5 0 7 5 4 10 -3 6 -8 10 -11 10 -2 0
-4 -4 -4 -10z"/>
<path d="M2910 12279 c0 -5 5 -7 10 -4 6 3 10 8 10 11 0 2 -4 4 -10 4 -5 0
-10 -5 -10 -11z"/>
<path d="M1516 9107 c3 -10 9 -15 12 -12 3 3 0 11 -7 18 -10 9 -11 8 -5 -6z"/>
<path d="M18075 5600 c-10 -11 -14 -20 -9 -20 5 0 15 9 22 20 7 11 11 20 9 20
-2 0 -12 -9 -22 -20z"/>
<path d="M11779 843 c-13 -16 -12 -17 4 -4 16 13 21 21 13 21 -2 0 -10 -8 -17
-17z"/>
<path d="M8870 719 c0 -5 5 -7 10 -4 6 3 10 8 10 11 0 2 -4 4 -10 4 -5 0 -10
-5 -10 -11z"/>
<path d="M9530 630 c0 -5 5 -10 11 -10 5 0 7 5 4 10 -3 6 -8 10 -11 10 -2 0
-4 -4 -4 -10z"/>
</g>
</svg>
